<?xml version="1.0" standalone="no"?>
<!DOCTYPE svg PUBLIC "-//W3C//DTD SVG 20010904//EN"
 "http://www.w3.org/TR/2001/REC-SVG-20010904/DTD/svg10.dtd">
<svg version="1.0" xmlns="http://www.w3.org/2000/svg"
 width="472.000000pt" height="529.000000pt" viewBox="0 0 472.000000 529.000000"
 preserveAspectRatio="xMidYMid meet">

<g transform="translate(0.000000,529.000000) scale(0.100000,-0.100000)"
fill="#000000" stroke="none">
<path d="M0 2919 c0 -1893 3 -2369 13 -2363 10 6 10 4 0 -7 -7 -7 -13 -20 -13
-29 0 -13 1 -13 10 0 8 12 11 13 19 1 5 -7 6 -22 3 -33 -4 -15 -7 -17 -13 -6
-5 8 -9 9 -9 2 0 -6 8 -18 17 -25 9 -8 14 -9 11 -4 -4 6 -3 17 3 25 7 13 9 12
9 -2 0 -17 14 -22 50 -20 13 0 13 -1 -1 -11 -22 -17 -32 -48 -14 -40 8 3 12 9
9 14 -10 16 1 9 20 -13 13 -15 14 -19 4 -15 -8 3 -15 0 -15 -7 0 -7 7 -12 16
-12 9 1 16 -3 16 -9 0 -5 -5 -9 -12 -7 -13 3 -7 -28 8 -38 11 -7 13 -43 4 -63
-7 -17 -8 -17 -22 0 -13 16 -13 16 -3 -5 6 -12 14 -21 18 -18 8 5 33 -20 26
-27 -3 -2 7 -2 21 1 14 2 28 9 32 15 3 6 1 7 -5 3 -7 -4 -12 -2 -12 3 0 6 8
11 18 12 10 0 12 3 4 6 -17 7 -15 20 3 20 8 0 12 -4 10 -8 -3 -3 2 -12 9 -18
10 -9 16 -9 21 -1 4 6 24 9 48 6 23 -3 51 1 62 7 24 14 30 58 7 49 -10 -3 -13
-1 -8 6 11 19 32 14 43 -10 19 -39 22 -57 13 -63 -6 -4 -10 1 -10 10 0 13 -5
13 -37 -3 -21 -11 -45 -17 -53 -15 -12 4 -13 3 -1 -5 9 -7 25 -5 49 5 32 13
34 13 28 -3 -6 -15 -4 -15 20 1 24 15 26 15 21 2 -3 -9 -2 -19 4 -23 5 -3 7
-15 4 -27 -4 -15 -3 -18 3 -9 7 10 12 9 23 -5 7 -10 9 -15 5 -11 -5 4 -15 0
-23 -10 -7 -9 -13 -12 -12 -7 3 23 -2 25 -26 9 -23 -15 -26 -15 -49 4 -14 11
-22 23 -18 27 4 5 2 5 -4 2 -7 -4 -14 2 -17 14 -7 28 -33 18 -29 -11 2 -12 -1
-20 -6 -16 -6 3 -13 -1 -16 -10 -10 -26 -7 -26 20 -5 15 11 30 18 35 15 13 -8
1 -24 -17 -24 -8 0 -12 -5 -9 -10 4 -6 11 -8 16 -5 5 4 13 -2 17 -12 9 -23 32
-28 32 -7 0 8 -3 13 -7 11 -5 -3 -13 1 -20 8 -9 10 -9 14 1 18 23 9 38 -33 26
-72 -5 -19 -7 -37 -5 -40 3 -2 5 0 5 6 0 5 7 10 15 10 9 0 15 -9 15 -21 0 -18
-2 -19 -11 -6 -7 10 -9 11 -7 2 6 -22 23 -19 26 4 3 20 6 21 32 11 26 -10 27
-12 12 -25 -11 -9 -8 -9 10 2 24 14 27 14 33 -2 5 -14 7 -14 16 -2 5 10 12 11
17 5 8 -12 52 -16 52 -5 0 5 -5 10 -12 12 -7 3 -9 11 -3 24 13 30 14 44 4 44
-5 0 -9 -9 -9 -20 0 -11 -5 -20 -11 -20 -6 0 -8 8 -4 19 3 11 1 22 -5 26 -5 3
-10 -1 -10 -9 0 -8 -9 -18 -20 -21 -11 -3 -20 -10 -20 -14 0 -4 -12 -7 -27 -6
-41 3 -43 4 -43 20 0 8 3 14 8 12 10 -3 52 40 45 47 -3 3 2 12 11 21 14 15 16
15 16 1 0 -9 -4 -16 -10 -16 -5 0 -7 -7 -4 -15 4 -8 11 -12 17 -8 6 3 7 1 3
-5 -3 -6 -16 -9 -27 -7 -15 3 -19 0 -15 -11 3 -9 6 -18 6 -21 0 -3 7 0 15 7 8
7 15 9 15 4 0 -4 6 1 14 12 10 13 11 23 4 31 -5 7 -8 22 -6 34 3 21 4 22 20 6
14 -15 17 -15 22 -1 9 24 8 26 -16 18 -19 -6 -20 -5 -7 8 8 8 21 17 29 20 11
3 11 6 -3 11 -9 3 -17 2 -17 -3 0 -5 -7 -7 -15 -4 -8 4 -26 -1 -39 -9 -23 -15
-24 -15 -30 6 -9 33 -7 45 7 50 6 2 2 3 -10 1 -21 -4 -27 16 -10 32 4 4 4 18
1 31 -4 13 -1 30 5 37 13 15 -1 32 -18 22 -5 -3 -8 2 -7 12 1 13 -5 16 -24 14
-20 -2 -22 -1 -10 7 11 8 11 11 2 11 -7 0 -11 4 -7 9 3 5 1 12 -5 16 -5 3 -10
2 -10 -4 0 -6 -7 -8 -16 -4 -13 5 -13 7 -2 14 21 13 -14 41 -53 43 -19 1 -33
5 -31 9 9 27 10 67 1 72 -5 3 -6 -1 -3 -9 5 -12 0 -16 -17 -15 -13 0 -19 3
-13 5 7 3 9 14 6 26 -4 16 -2 19 8 13 9 -6 11 -4 6 4 -5 7 -14 10 -22 7 -7 -3
-16 0 -20 6 -4 6 -3 9 2 6 5 -3 18 -2 29 3 18 7 18 8 -5 9 -14 2 -29 2 -33 1
-5 -1 -6 3 -3 7 5 8 28 8 85 0 19 -2 31 3 26 12 -8 13 5 13 25 0 13 -9 13 -10
0 -10 -13 0 -13 -1 0 -10 13 -8 12 -10 -2 -10 -10 0 -18 -7 -18 -15 0 -8 -6
-12 -14 -9 -24 9 -27 -12 -5 -40 22 -27 31 -27 35 -1 2 17 -12 21 -18 5 -2 -6
-9 -1 -16 10 -10 17 -10 20 5 17 10 -1 24 -6 31 -10 16 -10 16 5 0 22 -11 11
-10 13 5 7 10 -3 21 -6 23 -6 3 0 3 -4 -1 -9 -5 -9 19 -20 52 -25 16 -3 33
-24 33 -44 0 -7 -4 -11 -9 -8 -11 7 -21 -18 -13 -30 10 -13 35 -17 27 -4 -3 5
-1 10 5 10 6 0 8 4 5 10 -3 5 -4 10 -1 10 3 0 10 -10 17 -21 6 -12 7 -19 1
-15 -5 3 -12 -1 -15 -9 -4 -10 -1 -12 10 -8 10 4 14 2 10 -4 -4 -6 2 -13 13
-16 10 -3 21 0 24 7 2 6 5 4 5 -5 1 -9 8 -22 16 -29 13 -11 18 -11 28 0 10 10
9 12 -5 7 -10 -3 -20 -1 -24 5 -4 7 -3 8 4 4 7 -4 12 -2 12 3 0 6 6 10 13 8 6
-1 11 4 9 12 -3 12 0 12 12 1 17 -14 22 -25 7 -15 -13 7 -22 -8 -13 -22 5 -7
15 -7 31 -1 19 6 22 11 13 20 -7 7 -12 21 -12 33 0 17 -2 18 -11 5 -7 -10 -9
-11 -7 -2 6 22 23 19 26 -5 5 -33 19 -28 20 7 0 17 4 39 7 50 5 14 2 18 -7 15
-10 -4 -13 3 -12 22 2 45 3 47 21 31 17 -14 72 -34 59 -21 -3 4 -1 12 6 20 10
12 7 12 -16 2 -21 -10 -29 -10 -39 1 -10 10 -9 12 6 7 11 -4 25 1 37 13 18 18
20 19 22 3 0 -10 0 -29 -1 -41 -1 -15 2 -21 8 -17 6 3 11 0 11 -8 0 -8 9 -22
20 -32 23 -20 28 -14 6 8 -16 16 -30 80 -15 71 5 -3 9 0 9 5 0 6 -7 11 -15 11
-8 0 -15 7 -15 15 0 12 3 12 20 -2 15 -13 19 -26 15 -53 -3 -19 -2 -29 1 -22
3 6 14 12 24 12 15 0 18 -6 14 -26 -4 -22 -3 -23 10 -12 10 9 11 15 2 20 -10
7 -1 12 17 9 4 0 7 4 7 9 0 10 -13 14 -42 11 -10 -1 -18 4 -18 11 0 20 27 54
36 45 4 -4 2 -7 -4 -7 -19 0 -14 -18 7 -29 16 -9 18 -8 14 10 -4 12 0 25 8 30
11 7 10 11 -5 22 -16 12 -16 14 -2 14 9 0 16 -5 16 -11 0 -6 5 -4 11 4 9 12
10 11 4 -5 -11 -33 -11 -40 3 -38 6 2 12 -4 12 -12 0 -8 5 -15 11 -15 6 0 8 8
4 19 -3 11 0 23 6 27 8 5 10 2 6 -8 -3 -9 -1 -20 4 -25 6 -6 4 -15 -7 -24 -13
-11 -18 -11 -21 -1 -3 6 -10 9 -15 6 -6 -4 -9 -3 -6 2 3 5 -1 16 -10 23 -14
13 -15 12 -9 -10 4 -13 7 -27 7 -31 0 -4 7 -4 17 -1 12 5 14 3 8 -7 -6 -10 -4
-12 8 -7 18 7 30 -6 34 -37 4 -24 11 -32 20 -22 4 3 1 12 -5 18 -8 8 -7 15 6
25 16 12 16 13 0 7 -22 -8 -23 9 -3 30 8 8 15 20 15 26 0 6 5 8 10 5 6 -4 8
-16 4 -28 -6 -22 -6 -22 10 -2 15 19 15 19 16 -10 1 -65 2 -86 5 -83 1 2 8 14
15 27 10 19 10 22 -2 15 -10 -6 -9 -3 2 12 22 29 24 30 16 10 -4 -13 -2 -17 8
-13 7 3 20 0 27 -6 9 -9 9 -7 -1 6 -12 17 -12 18 5 15 10 -1 20 3 23 11 3 10
0 12 -12 8 -20 -8 -21 -3 -1 13 12 10 16 8 24 -11 l10 -24 0 23 c1 12 -4 22
-10 22 -6 0 -8 7 -5 16 4 9 1 23 -6 31 -7 9 -7 13 -1 11 6 -2 11 1 11 6 0 12
32 30 39 22 4 -3 1 -6 -5 -6 -7 0 -12 -5 -12 -11 0 -17 22 -5 31 18 6 17 4 20
-17 17 -13 -1 -22 2 -19 6 3 5 13 6 22 3 11 -4 14 -3 9 5 -4 7 -3 12 2 12 15
0 19 -21 16 -70 -6 -72 -8 -85 -19 -92 -5 -4 -7 -9 -5 -12 3 -2 16 4 30 16 18
14 20 18 6 14 -14 -5 -17 -3 -11 11 4 10 7 30 6 45 -1 15 4 30 10 34 8 4 9 3
5 -5 -4 -6 0 -14 8 -17 9 -3 16 -10 16 -16 0 -5 -4 -7 -8 -4 -5 3 -6 -9 -4
-25 6 -38 9 -34 15 18 4 35 3 41 -11 36 -10 -4 -13 -2 -8 5 4 7 15 12 26 12
13 0 17 -6 14 -22 l-5 -23 10 23 c6 12 15 23 21 23 5 1 15 2 20 3 6 0 15 8 20
16 5 8 10 11 10 6 0 -5 6 -3 14 3 12 10 14 8 10 -11 -5 -22 -5 -22 9 2 16 25
13 45 -4 35 -15 -10 -10 17 7 36 14 16 13 18 -15 32 -29 14 -32 14 -41 -3 -8
-15 -7 -18 7 -15 14 2 18 -5 20 -32 1 -20 -1 -33 -4 -29 -3 3 -18 -3 -32 -13
l-27 -19 2 26 c1 15 3 31 3 35 1 5 4 6 9 4 4 -3 7 8 8 24 1 18 -4 29 -12 29
-8 0 -14 6 -14 13 0 8 -4 7 -11 -3 -8 -12 -10 -12 -7 5 2 13 12 21 28 23 15 2
20 0 13 -5 -6 -5 9 -9 35 -9 131 -3 167 -6 174 -17 6 -9 8 -9 8 1 0 6 4 12 8
12 10 0 9 -41 -1 -57 -11 -18 1 -16 20 2 23 23 48 14 49 -17 1 -15 -2 -25 -7
-23 -4 3 -5 15 -1 28 5 19 3 20 -10 10 -8 -7 -18 -10 -21 -6 -4 3 -7 2 -7 -4
0 -6 7 -14 16 -17 13 -5 14 -9 4 -21 -9 -10 -9 -15 -1 -15 6 0 11 4 11 10 0 5
4 9 9 7 5 -1 8 1 8 4 -1 3 3 12 9 20 13 16 3 54 -15 54 -6 0 -11 3 -11 8 0 4
0 12 0 17 0 20 19 9 39 -22 21 -34 29 -32 11 3 -8 13 -7 19 0 19 6 0 9 4 6 9
-9 14 43 6 57 -9 9 -9 8 -11 -8 -10 -40 4 -46 1 -39 -25 3 -14 2 -25 -4 -25
-5 0 -12 -6 -15 -14 -5 -12 10 -15 33 -6 3 1 8 2 12 1 4 0 12 14 17 32 9 30
10 28 7 -16 -5 -56 -22 -83 -42 -66 -11 9 -15 7 -20 -5 -4 -9 -4 -20 0 -23 3
-3 1 -12 -5 -19 -9 -11 -13 -11 -25 1 -16 16 -18 35 -4 35 5 0 9 -5 7 -11 -1
-6 4 -13 11 -15 7 -1 8 0 3 2 -6 4 -7 14 -1 30 6 15 6 24 0 24 -6 0 -10 -5
-10 -11 0 -5 -4 -7 -10 -4 -12 7 -24 -39 -16 -60 6 -16 -4 -14 -31 7 -13 11
-6 41 8 32 5 -3 9 0 9 5 0 6 -5 11 -11 11 -7 0 -9 9 -6 21 4 16 3 19 -5 11
-15 -15 -18 -94 -4 -111 9 -12 8 -13 -7 -8 -10 4 -21 7 -24 7 -3 0 1 8 8 18
13 15 12 16 -4 3 -16 -13 -16 -15 -2 -31 14 -16 14 -18 0 -23 -8 -4 -15 -2
-15 3 0 5 -12 -3 -27 -18 -15 -15 -27 -31 -25 -35 1 -5 -6 -4 -15 2 -14 7 -23
5 -39 -10 -13 -12 -24 -16 -28 -10 -4 5 3 12 14 16 11 3 20 15 20 26 0 10 7
19 15 19 8 0 15 7 15 16 0 10 6 14 15 10 8 -3 14 -2 14 2 -3 21 2 42 11 42 7
0 8 -6 2 -16 -5 -9 -7 -24 -5 -33 3 -11 -5 -20 -24 -28 -15 -6 -21 -11 -12
-12 24 -2 48 21 53 53 3 15 13 34 23 41 10 7 15 17 10 21 -4 4 -7 2 -7 -4 0
-6 -7 -9 -14 -6 -9 3 -29 -8 -47 -27 -35 -36 -59 -45 -59 -23 0 8 5 13 11 11
6 -1 13 6 14 16 3 14 0 15 -9 8 -7 -6 -16 -8 -19 -4 -4 3 -7 -4 -7 -16 0 -13
-10 -31 -22 -42 -20 -16 -20 -18 -5 -19 33 0 17 -17 -19 -18 -35 -1 -74 -31
-74 -55 0 -6 7 -2 15 9 14 18 14 18 9 -3 -6 -22 -34 -41 -34 -23 0 6 -4 10
-10 10 -5 0 -9 -5 -7 -12 1 -6 -6 -14 -15 -16 -13 -2 -18 3 -18 17 0 15 -5 19
-18 15 -14 -5 -14 -3 3 11 12 9 21 11 23 5 5 -13 29 -13 37 0 3 6 -1 7 -10 4
-11 -5 -14 -2 -9 10 3 9 10 13 15 10 14 -8 10 6 -6 22 -13 14 -15 13 -15 -5 0
-12 -5 -21 -11 -21 -5 0 -7 6 -4 13 4 6 0 4 -8 -6 -11 -13 -16 -15 -19 -5 -3
7 -8 -2 -12 -20 -5 -18 -5 -36 -2 -39 3 -3 -1 -11 -9 -17 -11 -8 -12 -15 -4
-26 9 -13 10 -12 5 3 -3 11 0 17 9 17 8 0 17 0 20 0 3 0 5 -3 6 -7 3 -27 39
-38 39 -12 0 6 -5 7 -10 4 -6 -3 -10 -2 -10 3 0 5 9 12 19 15 15 4 19 0 18
-15 -2 -22 -36 -45 -46 -31 -11 15 -36 9 -36 -9 0 -10 -4 -17 -9 -17 -5 0 -13
-6 -18 -15 -5 -9 -14 -16 -20 -16 -6 0 -4 8 5 18 10 10 14 22 10 26 -4 4 1 4
12 0 20 -7 20 -7 0 15 -16 18 -17 25 -7 41 15 25 15 30 -2 30 -8 0 -17 7 -20
16 -7 19 -26 9 -25 -14 0 -14 2 -13 9 3 9 20 10 19 14 -23 3 -25 2 -26 -23
-10 -10 6 -17 18 -16 27 1 9 0 10 -2 4 -6 -18 -23 -16 -23 2 0 9 7 18 15 21
19 8 19 21 0 21 -8 0 -12 -3 -10 -7 2 -4 -4 -16 -15 -27 -15 -16 -17 -27 -10
-49 4 -16 9 -22 9 -13 1 17 35 20 38 4 1 -6 -5 -9 -13 -9 -8 1 -14 -2 -14 -7
0 -5 8 -9 17 -9 13 0 14 -3 5 -12 -8 -8 -15 -8 -25 0 -8 7 -17 9 -20 5 -4 -3
-7 6 -7 20 0 15 -5 27 -11 27 -6 0 -8 9 -4 23 5 16 4 19 -4 11 -6 -6 -13 -26
-16 -44 -5 -38 -23 -54 -43 -38 -10 9 -12 8 -10 -2 2 -7 -8 -16 -21 -19 -14
-4 -26 -12 -27 -19 -1 -7 0 -8 3 -2 2 5 9 7 15 4 6 -4 1 -12 -13 -20 -20 -11
-21 -13 -6 -14 10 0 15 -4 12 -10 -3 -5 -3 -10 0 -10 3 0 13 17 21 37 l16 37
19 -39 c10 -22 19 -37 20 -32 1 4 2 11 3 16 3 22 14 20 20 -5 4 -14 5 -29 1
-32 -3 -3 -5 3 -5 14 -1 17 -4 15 -25 -8 -29 -34 -37 -35 -27 -5 10 27 10 47
0 47 -5 0 -11 0 -14 0 -4 0 -1 -7 6 -15 11 -14 7 -19 -12 -16 -5 0 -8 -4 -8
-9 0 -5 -3 -9 -8 -9 -4 1 -16 1 -27 -1 l-20 -1 20 -9 c16 -7 16 -9 4 -9 -9 -1
-19 -8 -23 -16 -3 -8 -12 -12 -21 -9 -8 3 -12 10 -9 15 3 5 1 9 -5 9 -5 0 -9
-9 -8 -19 1 -12 6 -17 16 -13 9 3 12 1 7 -6 -4 -7 -14 -12 -22 -12 -8 0 -14
-4 -14 -8 0 -5 -9 -19 -20 -32 -11 -13 -20 -31 -20 -42 0 -20 -16 -24 -24 -5
-3 6 -4 3 -3 -7 1 -13 -8 -23 -33 -32 -24 -9 -29 -13 -14 -13 11 -1 28 5 38
12 14 11 24 11 42 3 26 -12 30 -21 14 -31 -5 -3 -10 -2 -10 3 0 21 -26 19 -27
-2 0 -11 1 -15 4 -8 3 6 9 9 14 6 6 -3 5 -11 -2 -20 -8 -10 -8 -14 0 -14 6 0
11 5 11 10 0 6 7 10 15 10 20 0 19 -10 -2 -26 -17 -12 -16 -13 5 -14 12 0 22
6 22 14 0 8 2 20 3 28 2 7 2 10 0 5 -3 -4 -9 -5 -14 -1 -5 3 -5 13 2 25 5 11
8 25 5 32 -2 7 -5 4 -5 -7 -1 -14 -4 -16 -14 -7 -8 6 -18 7 -22 3 -5 -4 -5 1
-2 11 4 10 7 23 7 28 0 6 5 7 10 4 6 -4 7 -11 4 -17 -4 -7 -2 -8 5 -4 6 4 9
11 6 16 -3 5 3 13 12 19 10 6 12 11 6 11 -7 0 -13 5 -13 10 0 13 37 45 53 45
7 0 12 6 12 12 0 7 11 20 23 29 19 13 26 14 35 4 9 -10 9 -11 0 -6 -6 3 -15 1
-19 -5 -4 -8 -3 -9 4 -5 7 4 12 1 12 -8 0 -19 -26 -21 -33 -3 -4 8 -6 9 -6 0
-1 -6 6 -18 14 -26 13 -13 13 -16 0 -21 -10 -3 -15 1 -16 12 0 14 -2 14 -6 2
-3 -8 -15 -23 -27 -33 -16 -13 -17 -16 -3 -11 10 4 17 1 18 -7 0 -8 4 -5 9 6
5 11 9 15 9 8 1 -13 41 -5 41 9 0 5 -6 6 -13 2 -8 -5 -8 -2 2 9 7 9 10 17 5
17 -4 0 -3 5 4 12 8 8 15 8 25 0 8 -7 17 -9 21 -5 4 4 4 0 0 -10 -8 -22 9 -22
27 0 10 11 10 14 1 9 -17 -10 -15 5 3 18 14 10 13 13 -6 30 -22 18 -22 18 -16
-3 6 -23 -7 -38 -18 -21 -4 6 -11 8 -16 5 -16 -11 -10 4 12 26 20 20 21 20 40
3 15 -13 22 -15 31 -6 15 15 48 16 48 1 0 -5 -4 -8 -9 -4 -5 3 -12 1 -15 -4
-4 -5 -2 -12 4 -16 6 -4 8 -11 5 -16 -4 -5 1 -12 9 -15 9 -3 16 -11 16 -18 0
-6 9 -12 21 -13 21 -2 21 -1 3 19 -11 12 -13 18 -6 14 6 -4 12 -3 12 2 0 17
-13 22 -29 9 -14 -10 -14 -10 -4 4 7 9 9 20 5 24 -4 5 -2 5 4 2 7 -4 15 0 18
9 9 23 8 24 -11 18 -11 -4 -14 -2 -8 3 15 13 14 43 -1 43 -11 0 -12 5 -5 18 5
9 10 22 11 27 1 6 6 9 12 7 5 -1 7 2 3 8 -3 5 -1 10 5 10 6 0 8 5 5 11 -5 6
-12 4 -22 -8 -13 -16 -13 -16 -3 5 6 13 17 21 23 19 17 -6 10 -50 -11 -65 -13
-10 -14 -15 -4 -21 7 -4 10 -15 6 -24 -3 -9 -3 -17 0 -17 4 0 11 10 16 23 7
17 9 18 9 5 1 -10 6 -18 11 -18 6 0 10 6 9 13 -3 23 1 40 8 34 3 -4 12 1 20
11 13 15 13 15 3 -5 -8 -18 -7 -24 7 -32 10 -6 13 -11 6 -11 -6 0 -15 5 -18
10 -11 17 -21 11 -21 -12 0 -13 7 -29 15 -36 14 -10 14 -12 1 -10 -8 2 -21 9
-28 15 -16 15 -36 17 -27 3 3 -5 1 -19 -5 -30 -9 -16 -8 -22 5 -26 11 -5 13
-10 5 -19 -8 -9 -8 -15 0 -20 5 -3 10 0 10 7 0 10 2 10 9 -1 7 -11 12 -7 24
15 14 26 16 26 14 7 -1 -13 -5 -23 -9 -23 -4 0 -5 -7 -2 -15 4 -8 -1 -17 -10
-21 -9 -3 -16 -11 -16 -16 0 -6 7 -7 16 -4 8 3 12 2 9 -4 -3 -6 -1 -10 6 -10
7 0 10 -2 7 -5 -8 -8 -58 13 -58 24 0 5 9 13 20 16 26 8 26 25 0 18 -10 -3
-22 -14 -26 -25 -6 -20 -6 -20 -20 1 -9 13 -21 18 -31 14 -15 -6 -14 -7 3 -14
10 -4 13 -8 6 -8 -7 -1 -10 -6 -7 -11 4 -6 11 -7 17 -4 7 5 8 2 3 -6 -6 -10
-12 -8 -27 9 -10 13 -16 27 -13 31 3 5 1 11 -5 15 -6 4 -8 11 -4 16 3 5 0 16
-6 24 -10 11 -10 15 -1 15 7 0 9 5 5 11 -9 15 -28 -17 -20 -36 3 -8 1 -15 -4
-17 -12 -4 -17 -53 -5 -53 6 0 9 8 9 17 -1 10 3 15 7 12 5 -3 7 -10 4 -15 -4
-5 -1 -9 4 -9 14 0 14 -27 1 -35 -6 -4 -7 1 -3 11 4 12 3 15 -5 10 -16 -10
-15 -36 1 -36 7 0 18 5 25 12 9 9 12 9 12 0 0 -6 -9 -16 -20 -22 -25 -13 -28
-53 -3 -48 19 3 31 28 13 28 -6 0 -8 -4 -5 -10 3 -5 1 -10 -4 -10 -18 0 -12
19 8 30 28 14 30 13 26 -12 -6 -27 -24 -40 -51 -33 -14 3 -24 -1 -28 -10 -6
-18 16 -20 45 -5 12 7 19 7 19 1 0 -5 13 -9 28 -9 27 1 29 4 26 36 -2 22 1 31
6 23 9 -16 30 -6 30 14 0 8 4 17 10 20 6 3 7 -1 4 -9 -4 -10 -1 -16 7 -17 8 0
3 -5 -10 -10 -18 -7 -21 -12 -12 -23 9 -11 9 -16 0 -22 -8 -4 -9 -3 -5 4 4 8
0 12 -10 12 -14 0 -15 -3 -6 -12 13 -13 45 -20 37 -8 -3 4 4 19 15 32 15 20
16 28 7 38 -9 10 -9 14 1 17 6 3 10 9 7 14 -4 5 1 6 10 3 8 -4 22 -1 30 6 8 7
15 8 15 4 0 -5 -9 -15 -20 -22 -12 -7 -18 -17 -15 -22 7 -11 33 -9 53 4 7 4
16 5 19 2 4 -3 1 -6 -6 -6 -8 0 -9 -6 -3 -17 5 -10 7 -23 5 -30 -7 -18 16 -26
32 -10 8 8 13 16 12 18 -1 2 0 3 2 2 2 -2 10 5 17 15 9 11 13 12 14 4 0 -8 8
-10 26 -6 18 5 25 3 20 -4 -3 -5 -17 -9 -31 -7 -34 3 -51 -18 -28 -36 15 -12
16 -12 9 6 -4 11 -4 16 0 12 4 -4 13 -2 21 5 11 9 15 7 20 -10 4 -15 12 -21
28 -20 13 1 21 6 19 10 -3 4 -11 5 -18 2 -10 -4 -12 2 -9 23 3 15 5 38 5 50 0
13 4 20 10 17 5 -3 7 -21 5 -40 -3 -19 -1 -31 4 -28 5 3 9 14 9 25 0 11 4 18
9 14 5 -3 12 -1 16 5 4 6 11 8 16 4 5 -3 7 -10 4 -15 -3 -5 1 -6 10 -2 12 4
13 8 5 13 -7 4 -10 12 -6 18 3 6 1 14 -5 18 -8 4 -9 3 -5 -4 4 -7 2 -12 -4
-12 -8 0 -10 9 -5 27 4 16 3 25 -1 21 -4 -4 -13 -3 -20 3 -7 6 -19 7 -25 3 -9
-5 -6 -10 9 -15 12 -5 22 -15 22 -24 0 -8 0 -17 0 -20 0 -3 -3 -4 -7 -2 -4 1
-7 11 -6 22 1 16 1 16 -3 2 -3 -9 -10 -15 -15 -11 -5 3 -6 11 -2 17 4 7 0 6
-10 -2 -9 -7 -17 -23 -17 -34 0 -11 -3 -17 -7 -14 -3 4 -11 3 -17 -2 -16 -13
-36 12 -25 30 6 10 9 10 9 2 0 -7 7 -13 15 -13 8 0 15 5 15 10 0 6 -4 10 -10
10 -5 0 -10 8 -10 17 0 15 1 15 13 -2 17 -23 29 -6 23 30 -4 23 -3 25 11 13
14 -11 15 -10 9 12 -5 16 -4 20 2 12 7 -11 14 -7 30 15 12 15 22 23 22 16 0
-7 6 -10 14 -7 8 3 17 0 22 -7 4 -8 3 -10 -4 -5 -7 4 -12 1 -12 -8 0 -24 18
-28 30 -6 6 11 15 20 21 20 5 0 -1 -12 -15 -27 -14 -15 -23 -30 -20 -35 3 -4
-2 -5 -10 -2 -9 3 -16 1 -16 -6 0 -6 4 -8 10 -5 9 5 14 -7 12 -26 -1 -4 8 -15
18 -24 15 -14 23 -15 34 -6 11 9 15 8 20 -5 4 -10 3 -20 -1 -23 -4 -3 -9 -13
-11 -21 -1 -10 3 -9 14 5 16 19 16 19 10 -9 -6 -26 -6 -27 9 -12 9 9 20 16 25
16 5 0 7 6 4 14 -3 8 -1 17 5 21 6 3 11 1 11 -6 0 -7 7 -4 16 7 15 18 15 18 9
-11 -3 -16 -2 -25 2 -19 4 6 17 10 28 8 18 -2 18 -1 4 9 -14 11 -14 14 2 31
18 18 18 18 13 -7 -2 -16 1 -29 10 -34 12 -7 12 -10 0 -21 -8 -7 -14 -9 -14
-4 0 12 -32 11 -49 -2 -11 -8 -13 -8 -8 1 4 6 3 14 -3 18 -5 3 -10 -1 -10 -9
0 -8 -8 -16 -17 -18 -10 -2 12 -5 50 -5 37 -1 67 3 67 8 0 6 7 6 19 -1 33 -17
67 -12 68 10 1 13 -2 18 -9 14 -7 -4 -8 -2 -4 5 10 16 26 4 26 -20 0 -24 8
-24 33 -2 17 15 19 15 15 2 -5 -12 1 -15 26 -15 18 1 40 7 49 15 10 7 17 9 17
3 0 -6 -6 -13 -12 -15 -7 -3 4 -6 25 -6 21 -1 37 4 37 10 0 8 4 8 14 0 18 -15
176 -13 176 3 0 7 3 7 8 -2 11 -17 74 -12 68 5 -3 7 4 17 14 23 21 11 29 -3
10 -15 -25 -16 8 -23 98 -23 62 0 100 4 104 11 6 9 8 9 8 0 0 -9 21 -13 71
-13 38 0 68 4 65 8 -3 5 1 9 9 9 8 0 12 -4 9 -9 -3 -4 17 -8 44 -8 42 0 51 3
55 21 3 12 10 18 16 15 5 -4 12 -2 15 3 8 12 30 9 48 -6 9 -8 19 -9 28 -3 8 6
20 10 25 10 6 0 3 -5 -5 -10 -10 -6 -11 -10 -3 -10 15 0 45 55 35 64 -3 4 1 4
11 0 10 -3 17 -1 17 5 0 13 32 45 48 48 7 2 2 -17 -11 -45 -23 -49 -41 -73
-54 -72 -4 1 -9 -3 -11 -9 -2 -7 21 -11 67 -11 50 0 71 4 72 13 0 6 2 20 4 29
2 10 -1 21 -7 24 -5 3 -2 14 8 25 16 18 16 19 1 13 -9 -3 -17 -2 -17 4 0 5 6
12 14 15 9 4 13 14 9 29 -4 18 -3 20 6 8 8 -12 10 -11 8 7 0 12 -4 20 -8 17
-4 -2 -9 3 -13 11 -3 9 0 15 8 15 10 0 13 11 11 38 -1 20 2 40 9 44 8 6 7 8
-1 8 -7 0 -13 5 -13 11 0 6 8 8 18 5 16 -6 16 -5 0 8 -19 14 -25 32 -8 21 6
-4 10 8 10 29 0 20 5 36 11 36 5 0 9 8 8 18 -3 32 1 53 9 48 4 -2 8 5 9 17 0
12 -1 16 -4 10 -6 -16 -33 -17 -33 -1 0 6 3 8 7 5 3 -4 16 2 28 13 20 19 23
19 29 5 4 -11 2 -14 -7 -10 -6 4 -3 -1 7 -9 11 -9 20 -25 21 -36 1 -15 -1 -17
-12 -8 -7 6 -17 7 -21 3 -4 -4 -1 -10 6 -12 8 -3 5 -10 -9 -22 l-22 -17 28
-22 c30 -24 26 -29 -8 -11 l-22 12 20 -23 c19 -23 19 -23 1 -16 -19 7 -19 6
-3 -12 16 -18 16 -20 2 -26 -9 -3 -14 -2 -11 3 3 5 -2 15 -11 22 -15 12 -16
12 -8 -1 14 -22 18 -63 6 -56 -5 4 -13 2 -16 -4 -4 -6 -1 -9 7 -8 7 2 12 -4
10 -12 -13 -55 -12 -88 2 -93 9 -4 19 1 24 10 8 13 10 12 15 -6 3 -12 2 -19
-2 -17 -4 3 -13 1 -21 -4 -9 -5 -20 -4 -30 3 -8 6 -12 8 -8 3 3 -4 0 -25 -7
-47 -8 -22 -10 -39 -5 -39 6 0 10 9 10 21 0 11 4 18 10 14 5 -3 7 -12 4 -19
-3 -8 -1 -17 5 -21 6 -3 11 -14 11 -23 -1 -15 -2 -15 -15 2 -13 17 -17 18 -28
6 -6 -7 -7 -10 -1 -7 6 4 19 -2 29 -13 16 -18 16 -20 2 -20 -10 0 -17 5 -17
10 0 6 -7 10 -15 10 -8 0 -15 -5 -15 -11 0 -5 4 -8 9 -4 5 3 12 1 15 -4 8 -12
76 -12 99 0 10 6 15 14 12 20 -4 5 -2 9 3 9 17 0 22 -13 10 -27 -10 -13 3 -14
94 -11 72 2 103 6 98 13 -6 7 -2 11 10 11 10 0 18 -3 18 -6 -1 -17 4 -18 21
-3 11 9 17 21 14 27 -4 6 2 4 12 -4 17 -14 18 -13 12 10 l-6 25 19 -23 c18
-22 37 -31 25 -12 -3 6 -2 10 4 10 5 0 13 -4 16 -10 3 -5 2 -10 -4 -10 -6 0
-8 -7 -5 -15 7 -17 85 -18 96 -1 5 7 8 7 8 -2 0 -10 28 -13 130 -11 71 1 127
6 124 11 -8 12 10 10 25 -5 11 -9 13 -9 7 1 -4 6 -2 12 3 12 6 0 11 -4 11 -10
0 -6 132 -10 375 -10 l375 0 0 2645 0 2645 -2360 0 -2360 0 0 -2371z m3671
1621 c36 -50 70 -157 119 -382 32 -148 104 -367 169 -518 92 -210 171 -480
212 -725 36 -216 36 -316 -1 -484 -11 -52 -20 -96 -20 -97 0 -1 -16 -12 -37
-24 -31 -18 -40 -20 -66 -9 -16 7 -38 22 -48 33 -18 19 -128 235 -164 321 -26
62 -121 351 -145 440 -53 197 -104 496 -121 715 -6 69 -21 188 -34 265 -43
257 -49 352 -29 452 2 12 18 35 36 52 29 27 34 28 64 17 19 -6 46 -29 65 -56z
m-1887 -105 c-4 -8 -10 -15 -16 -15 -5 0 -6 -4 -3 -10 3 -5 1 -10 -4 -10 -15
0 -14 18 2 35 16 19 28 19 21 0z m125 -8 c-2 -1 -13 -9 -24 -17 -19 -14 -19
-14 -6 3 7 9 18 17 24 17 6 0 8 -1 6 -3z m-278 -427 c6 0 7 6 3 13 -4 6 1 5
12 -4 14 -12 37 -16 87 -14 37 1 67 -2 67 -6 0 -4 9 -5 19 -2 10 3 30 -1 42
-8 13 -7 37 -13 52 -14 16 -1 32 -6 35 -12 9 -13 52 -23 52 -12 0 5 -4 9 -9 9
-5 0 -11 9 -14 19 -4 18 -2 18 16 8 12 -7 28 -20 35 -29 7 -10 18 -18 24 -18
7 0 6 5 -2 14 -20 25 29 15 90 -18 30 -16 73 -39 95 -50 23 -12 51 -31 63 -44
13 -12 28 -20 34 -16 7 4 8 3 4 -4 -4 -7 -1 -12 6 -12 13 0 58 -75 58 -97 0
-7 5 -13 10 -13 6 0 10 -8 8 -17 -2 -11 2 -17 11 -15 8 2 11 -3 8 -13 -4 -8
-2 -15 3 -15 6 0 10 5 10 10 0 6 5 10 10 10 7 0 9 -20 6 -55 -3 -38 -1 -55 7
-56 8 0 8 -2 0 -6 -18 -7 -16 -30 4 -41 14 -8 17 -27 18 -108 1 -56 -4 -105
-9 -112 -6 -7 -17 -19 -24 -27 -7 -8 -14 -28 -14 -45 -1 -27 -4 -30 -35 -30
-18 0 -36 -1 -40 -1 -5 -1 -12 8 -18 20 -11 24 -35 28 -35 6 0 -23 -37 -18
-73 9 -50 37 -193 105 -286 136 -127 42 -246 60 -408 60 l-142 0 -3 -52 c-2
-32 -8 -53 -17 -56 -10 -4 -12 6 -6 47 8 56 2 60 -43 37 -26 -13 -229 -56
-266 -56 -9 0 -15 4 -11 9 3 5 1 12 -5 16 -5 3 -10 12 -10 18 0 8 3 8 9 -1 6
-10 10 -10 21 2 7 9 16 13 21 10 5 -3 6 1 4 9 -3 7 -1 24 5 38 10 24 10 24 7
-4 -3 -15 0 -30 6 -34 6 -3 7 -1 3 5 -4 7 -1 12 7 12 8 0 19 12 25 28 13 39
85 113 111 115 11 1 21 5 21 10 0 5 9 7 20 4 11 -3 23 -1 26 5 8 12 -16 29
-31 22 -5 -3 -2 1 8 9 19 16 24 32 6 21 -6 -3 -3 5 6 20 19 29 30 35 21 11 -8
-21 28 -19 45 3 13 15 12 16 -4 3 -9 -8 -20 -11 -23 -8 -8 8 13 44 31 50 8 4
12 13 9 21 -4 11 -11 9 -32 -13 -15 -15 -21 -19 -13 -9 12 15 12 18 0 19 -10
0 -11 2 -1 6 6 2 9 9 6 15 -3 5 9 25 27 44 18 19 34 41 35 49 1 9 8 23 15 32
7 8 14 22 15 30 1 8 12 23 25 34 25 21 34 24 23 8 -7 -12 83 37 101 54 7 7 6
8 -2 3 -6 -3 -15 -1 -19 5 -4 8 -3 9 5 5 6 -4 14 0 18 10 4 11 8 13 11 6 2 -7
8 -12 13 -12z m-181 -123 c0 -2 -12 -14 -27 -28 -24 -22 -23 -11 2 18 9 11 25
17 25 10z m-163 -113 c-3 -3 -12 -4 -19 -1 -8 3 -5 6 6 6 11 1 17 -2 13 -5z
m-96 -147 c-10 -9 -11 -8 -5 6 3 10 9 15 12 12 3 -3 0 -11 -7 -18z m-45 -75
c-17 -16 -18 -16 -5 5 7 12 15 20 18 17 3 -2 -3 -12 -13 -22z m-26 -63 c-7
-11 -14 -18 -17 -15 -3 3 0 12 7 21 18 21 23 19 10 -6z m24 -54 c-4 -8 -8 -15
-10 -15 -2 0 -4 7 -4 15 0 8 4 15 10 15 5 0 7 -7 4 -15z m-54 -28 c0 -8 -6
-14 -14 -14 -8 0 -12 6 -9 14 3 7 9 13 14 13 5 0 9 -6 9 -13z m735 -52 c40 -9
91 -22 112 -29 35 -13 28 -14 -107 -14 -92 1 -153 -3 -167 -10 -12 -7 -54 -12
-93 -12 -62 0 -71 2 -68 17 2 10 18 28 37 40 29 20 47 23 123 23 49 0 122 -7
163 -15z m237 -81 c37 -16 56 -50 21 -37 -12 5 -14 3 -8 -8 5 -8 -5 -3 -21 11
-15 14 -22 17 -15 8 18 -24 -1 -23 -23 1 -12 14 -33 19 -83 20 -72 2 -102 12
-63 21 45 11 153 2 192 -16z m-1204 -53 c34 -23 50 -28 77 -24 32 5 33 4 28
-18 -6 -21 -5 -22 10 -11 9 8 15 19 13 25 -1 7 -1 9 1 4 3 -4 10 -4 16 0 7 3
3 -3 -7 -15 -13 -15 -15 -22 -6 -22 7 0 10 -8 7 -20 -3 -11 -1 -20 4 -20 6 0
9 -6 8 -12 -1 -7 1 -35 6 -63 7 -44 9 -47 17 -25 5 13 6 30 3 37 -2 8 -1 12 4
9 5 -4 8 18 7 47 -3 80 0 86 48 85 22 0 82 4 131 8 50 5 119 7 155 4 l65 -5 6
-130 c4 -87 12 -144 24 -172 16 -41 63 -82 115 -101 56 -21 299 -82 327 -82
16 0 54 13 84 30 52 28 78 55 188 198 18 23 42 47 53 53 25 13 29 7 58 -71 27
-73 42 -100 50 -95 13 8 62 -108 63 -147 0 -47 -36 -105 -76 -123 -18 -8 -41
-21 -52 -30 -18 -14 -18 -18 -5 -28 23 -19 40 -55 34 -72 -3 -8 -1 -15 5 -15
15 0 14 -33 -1 -48 -7 -7 -22 -12 -34 -12 -26 0 -46 -22 -49 -55 -2 -17 1 -22
11 -18 10 3 14 -3 14 -20 0 -14 7 -27 15 -31 20 -7 19 -28 -4 -55 -19 -22 -40
-24 -53 -6 -5 6 -8 3 -8 -6 0 -8 7 -24 15 -35 8 -10 15 -22 15 -26 0 -6 -40
-23 -47 -20 -2 0 -16 -3 -33 -8 -19 -5 -30 -5 -30 1 0 6 -4 7 -10 4 -14 -9
-12 -25 3 -23 6 2 11 -3 9 -11 -2 -11 0 -12 11 -2 12 9 15 7 19 -13 3 -14 0
-30 -6 -36 -6 -7 -7 -11 -1 -10 24 5 46 -1 40 -11 -11 -17 -8 -79 5 -94 10
-12 9 -15 -6 -15 -13 0 -15 -3 -6 -8 15 -10 9 -75 -7 -80 -6 -2 -11 -10 -11
-18 0 -9 -4 -13 -9 -9 -5 3 -12 1 -16 -5 -4 -6 -11 -8 -16 -5 -5 4 -9 0 -9 -7
0 -10 -2 -10 -9 1 -5 7 -14 10 -20 7 -6 -4 -11 -3 -11 3 0 5 10 12 23 14 l22
4 -23 2 c-13 0 -25 -6 -29 -16 -4 -10 -13 -23 -21 -29 -8 -6 -12 -16 -9 -21 7
-12 -19 -11 -47 2 -10 4 -21 4 -25 -1 -9 -13 -31 -16 -31 -4 0 5 -7 10 -15 10
-8 0 -15 5 -15 10 0 6 -5 10 -11 10 -6 0 -9 -7 -5 -15 3 -8 1 -15 -4 -15 -6 0
-10 4 -10 9 0 5 -9 11 -20 14 -11 3 -20 1 -20 -3 0 -9 -26 -7 -36 3 -11 10
-26 9 -20 -2 4 -5 -3 -7 -14 -4 -11 3 -20 10 -21 17 -1 6 -5 0 -9 -14 l-8 -25
-1 25 c-1 19 -3 22 -10 11 -7 -12 -13 -12 -24 -3 -7 7 -16 9 -19 7 -3 -3 -13
6 -22 21 -17 24 -18 25 -32 7 -12 -15 -13 -15 -8 -1 4 12 1 16 -12 14 -9 -2
-18 -10 -20 -19 -1 -10 2 -15 7 -11 5 3 9 2 9 -3 0 -4 12 -9 26 -10 15 0 33
-8 42 -17 14 -13 13 -15 -9 -10 l-24 5 23 -11 c13 -5 28 -8 32 -5 12 7 41 -6
35 -15 -3 -5 2 -15 10 -23 20 -21 19 -59 -3 -83 -10 -10 -26 -36 -35 -56 -10
-21 -25 -42 -35 -47 -9 -6 -13 -11 -8 -11 5 0 0 -8 -11 -17 -30 -27 -58 -73
-44 -73 7 0 9 -5 6 -10 -3 -6 3 -10 15 -10 12 0 18 -4 15 -10 -8 -13 1 -13 28
2 19 10 20 9 10 -4 -7 -8 -10 -18 -6 -22 4 -4 -1 -4 -12 -1 -18 6 -18 5 -2 -5
9 -6 23 -8 30 -4 9 6 9 4 -1 -8 -15 -19 -2 -31 24 -21 13 5 15 3 9 -8 -4 -8 6
-1 23 15 19 18 37 26 47 22 9 -3 14 -2 11 3 -3 5 6 16 19 25 14 9 23 21 21 25
-6 10 52 65 109 103 33 22 41 24 48 12 4 -8 5 -19 2 -24 -3 -6 -2 -10 3 -10 4
0 8 -14 8 -31 0 -27 -1 -29 -12 -15 -21 29 -24 -6 -3 -48 13 -27 14 -34 4 -26
-12 10 -15 9 -15 -9 0 -13 6 -21 17 -21 14 0 13 -3 -5 -16 -23 -16 -23 -17 -5
-37 10 -11 13 -18 8 -15 -6 4 -15 -4 -21 -17 -10 -20 -9 -23 5 -18 14 4 14 3
1 -9 -8 -7 -17 -24 -18 -38 -5 -33 -21 -52 -41 -48 -9 2 -24 -4 -33 -12 -10
-8 -27 -22 -37 -32 -11 -9 -21 -14 -24 -12 -8 8 -110 -28 -136 -48 -17 -13
-28 -15 -35 -8 -5 5 -19 10 -31 9 -19 0 -19 -1 -1 -8 17 -7 18 -8 3 -14 -9 -3
-19 -2 -22 3 -4 6 -59 10 -123 10 -154 1 -184 8 -282 66 -254 149 -335 360
-194 505 61 62 63 120 28 579 -13 168 -36 329 -50 351 -2 4 -33 21 -68 37 -88
41 -140 91 -181 176 -44 88 -79 254 -72 341 5 64 52 176 85 201 27 21 64 16
110 -15z m908 -1 c9 0 12 5 9 10 -11 17 33 5 57 -16 23 -19 23 -19 8 1 -13 19
-13 19 6 2 16 -15 17 -19 5 -26 -8 -5 -24 -6 -35 -2 -12 4 -32 6 -46 5 -28 -2
-41 12 -32 35 4 10 7 11 10 3 2 -7 10 -12 18 -12z m-128 -25 c33 -8 27 -22
-15 -35 -21 -7 -42 -16 -47 -21 -14 -12 -5 -11 44 6 41 15 90 11 90 -6 0 -5
-3 -9 -7 -10 -5 0 -17 -2 -28 -4 -11 -3 -38 -7 -59 -9 -22 -3 -44 -10 -49 -15
-14 -14 32 -35 70 -32 55 4 70 -11 77 -83 6 -54 4 -70 -13 -105 -25 -47 -26
-67 -7 -74 9 -4 13 -1 10 6 -2 7 15 38 38 70 40 55 43 57 90 58 54 2 52 1 93
18 17 7 38 13 48 14 10 1 15 7 12 15 -2 7 -1 11 4 8 5 -3 14 1 21 9 9 10 9 15
1 15 -6 0 -11 5 -11 10 0 6 10 10 23 10 12 0 31 7 41 15 11 8 14 15 7 15 -7 0
-9 5 -5 11 4 8 0 8 -15 0 -14 -8 -21 -8 -21 -1 0 5 5 10 10 10 6 0 10 7 10 16
0 14 8 15 56 9 36 -4 60 -3 69 5 23 19 28 -7 10 -61 -14 -42 -19 -48 -32 -38
-11 9 -16 10 -21 1 -4 -6 -20 -15 -35 -21 -15 -6 -27 -17 -27 -25 0 -19 40
-47 54 -39 6 4 5 -1 -3 -10 -7 -9 -18 -14 -24 -10 -6 3 -7 1 -3 -5 10 -17 -48
-85 -97 -113 -38 -21 -53 -24 -144 -22 -112 2 -213 23 -286 60 -38 19 -53 34
-67 66 -23 53 -34 158 -26 240 l7 62 67 -3 c37 -1 77 -5 90 -7z m175 -35 c7 0
6 -4 -3 -10 -19 -12 -60 -13 -60 -1 0 12 21 21 38 15 8 -2 19 -4 25 -4z m433
-74 c-1 -30 -42 -93 -53 -82 -4 4 44 116 50 116 2 0 4 -15 3 -34z m-509 8 c10
-27 -12 -38 -47 -24 -24 10 -28 15 -19 26 16 19 58 18 66 -2z m1157 -166 c-3
-27 -10 -48 -16 -48 -5 0 -6 -9 -3 -20 4 -11 2 -20 -4 -20 -6 0 -11 -8 -12
-17 0 -14 -2 -14 -9 4 -5 12 -18 24 -29 28 -12 3 -21 11 -21 17 0 5 7 7 16 4
9 -3 20 -6 25 -6 6 0 7 -4 4 -10 -3 -5 -2 -10 4 -10 12 0 25 56 16 70 -3 5 -1
10 4 10 7 0 11 24 12 58 1 53 2 55 10 22 5 -19 6 -56 3 -82z m-24 98 c0 -3 -4
-8 -10 -11 -5 -3 -10 -1 -10 4 0 6 5 11 10 11 6 0 10 -2 10 -4z m-1090 -33 c0
-20 -3 -24 -11 -16 -7 7 -9 19 -6 27 10 24 17 19 17 -11z m374 9 c2 -4 0 -14
-5 -22 -8 -13 -10 -13 -18 0 -10 15 -6 30 9 30 5 0 11 -4 14 -8z m693 -224
c-3 -8 -6 -5 -6 6 -1 11 2 17 5 13 3 -3 4 -12 1 -19z m-107 -39 c0 -20 -8 -23
-34 -13 -12 5 -13 11 -6 25 13 22 40 14 40 -12z m-763 15 c-3 -3 -12 -4 -19
-1 -8 3 -5 6 6 6 11 1 17 -2 13 -5z m816 -27 c4 3 7 1 7 -5 0 -14 -2 -14 -24
-6 -9 3 -16 11 -16 16 0 7 5 6 13 -1 8 -6 17 -8 20 -4z m-1849 -1184 c-55 -96
-66 -124 -71 -183 -7 -78 14 -133 76 -199 26 -28 42 -53 36 -55 -5 -2 0 -5 13
-5 12 -1 22 -5 22 -11 0 -5 6 -10 14 -10 8 0 16 -4 18 -9 2 -5 28 -21 58 -37
61 -31 56 -29 123 -45 26 -6 47 -15 47 -20 0 -11 -23 -7 -32 6 -5 6 -8 5 -8
-3 0 -10 -5 -10 -21 -2 -17 9 -23 8 -36 -7 -8 -10 -12 -13 -9 -7 3 6 -3 22
-14 34 -11 13 -20 18 -20 11 0 -8 -5 -7 -16 3 -8 9 -22 17 -30 17 -31 3 -35 4
-42 14 -4 6 -16 12 -27 13 -11 2 -23 9 -26 14 -4 6 -12 7 -19 3 -9 -5 -11 -4
-6 3 5 8 -2 12 -18 12 -29 0 -32 -9 -13 -30 6 -8 2 -6 -11 5 -13 11 -19 21
-13 23 6 2 8 9 5 14 -4 7 -2 8 4 4 7 -4 12 -1 12 9 0 10 5 13 13 9 6 -4 4 2
-6 13 -9 11 -14 23 -10 28 5 4 3 5 -4 1 -7 -4 -21 2 -33 14 -11 11 -17 20 -13
20 3 0 -1 8 -10 18 -10 10 -14 22 -10 27 5 4 2 5 -5 1 -10 -6 -10 -11 -1 -22
9 -11 8 -14 -6 -14 -16 0 -17 9 -13 88 6 101 42 207 89 265 41 50 46 46 13
-10z m-164 -264 c0 -5 -4 -9 -8 -9 -5 0 -9 7 -9 15 0 8 4 12 9 9 4 -3 8 -9 8
-15z m37 -21 c0 -28 7 -63 22 -100 6 -17 7 -29 1 -33 -11 -7 -12 -5 -33 70
-10 37 -11 56 -3 68 14 22 14 21 13 -5z m-42 -25 c0 -11 5 -26 11 -34 7 -8 15
-28 18 -46 4 -17 14 -37 22 -43 7 -7 11 -16 8 -21 -3 -5 2 -9 12 -9 14 0 14 3
4 15 -7 9 -10 18 -7 22 8 7 37 -16 37 -29 0 -5 27 -35 60 -67 33 -32 56 -62
52 -66 -4 -5 -2 -5 4 -2 10 6 102 -41 139 -70 6 -4 15 -8 20 -9 18 0 85 -16
85 -19 0 -21 -14 -33 -30 -25 -9 5 -21 6 -25 2 -5 -4 -5 2 -1 12 5 15 4 17 -7
8 -8 -7 -16 -9 -19 -7 -3 3 -15 8 -28 10 -32 6 -85 40 -83 53 2 8 -5 9 -20 3
-12 -5 -21 -11 -19 -15 1 -3 2 -13 2 -21 0 -8 5 -15 11 -15 5 0 7 5 4 10 -10
16 1 11 16 -7 8 -9 9 -14 3 -10 -7 4 -14 0 -18 -8 -3 -8 -12 -15 -20 -15 -10
0 -13 -6 -10 -15 4 -8 11 -12 17 -8 6 3 7 1 3 -5 -4 -7 -2 -12 5 -12 6 0 9 8
6 20 -3 11 -1 23 4 26 5 3 9 -4 9 -14 0 -11 7 -22 15 -26 18 -7 20 5 3 22 -9
9 -9 12 1 12 7 0 9 5 5 13 -4 6 -4 9 0 5 4 -3 7 -8 5 -10 -6 -8 23 -48 34 -47
9 0 9 2 0 6 -7 2 -13 9 -13 14 0 6 5 7 10 4 6 -4 17 -2 24 4 11 9 15 6 21 -11
l8 -23 4 23 c2 12 9 20 14 17 5 -4 5 -14 -2 -26 -6 -12 -13 -18 -16 -15 -8 8
-33 -28 -44 -62 l-9 -27 3 26 c6 42 -17 63 -67 63 -25 0 -44 3 -44 6 1 3 -4
16 -10 30 -6 15 -11 19 -12 10 -1 -8 -8 -1 -16 15 -12 24 -14 26 -10 6 3 -16
2 -21 -5 -14 -6 6 -12 19 -13 29 -2 10 -9 20 -17 22 -11 3 -11 1 1 -7 8 -6 10
-11 4 -11 -6 0 -17 7 -24 15 -7 8 -9 15 -5 15 5 0 0 9 -9 19 -10 11 -15 25
-10 32 4 7 3 10 -3 6 -13 -8 -30 11 -35 38 -1 11 -9 26 -16 33 -7 8 -10 17 -7
22 3 5 0 12 -6 16 -8 5 -9 3 -4 -7 7 -12 6 -12 -7 -1 -9 7 -14 21 -11 32 3 12
0 20 -7 20 -9 0 -9 4 1 17 8 10 9 14 2 10 -17 -10 -27 11 -13 28 9 10 7 16 -7
24 -13 7 -14 10 -4 11 8 0 11 3 8 6 -3 4 -2 15 3 25 7 11 6 19 0 22 -6 3 -5 4
2 3 7 -2 13 -12 13 -23z m99 -48 c-4 -8 -11 -12 -16 -9 -6 4 -5 10 3 15 19 12
19 11 13 -6z m36 -85 c0 -5 -2 -10 -4 -10 -3 0 -8 5 -11 10 -3 6 -1 10 4 10 6
0 11 -4 11 -10z m2570 -6 c0 -8 -5 -12 -11 -9 -6 4 -13 -2 -16 -14 -3 -12 -12
-21 -21 -21 -12 0 -12 4 4 23 18 20 36 36 42 37 1 0 2 -7 2 -16z m-24 -66 c5
-7 2 -9 -9 -5 -11 4 -22 -4 -37 -26 l-20 -32 4 27 c3 15 7 32 11 38 8 14 42
13 51 -2z m-2466 -9 c0 -4 9 -6 20 -4 11 2 18 0 15 -6 -4 -5 4 -10 17 -10 17
-1 18 -3 6 -6 -10 -2 -18 -9 -18 -14 0 -6 4 -8 9 -5 5 3 20 -5 34 -18 23 -22
27 -22 43 -7 17 15 17 15 6 0 -10 -14 -10 -18 3 -23 8 -3 15 -11 15 -18 0 -10
-2 -10 -9 0 -4 7 -14 14 -22 16 -16 2 -81 45 -122 79 -19 16 -23 24 -13 24 9
0 16 -4 16 -8z m122 -40 c5 -3 3 -9 -6 -12 -12 -5 -16 0 -15 21 0 16 3 21 6
12 3 -8 10 -18 15 -21z m351 -21 c20 -1 37 -6 37 -11 0 -4 -10 -7 -22 -5 -15
2 -22 -2 -20 -10 2 -10 -3 -9 -20 2 -13 7 -44 13 -70 12 -28 -1 -44 2 -41 8 4
5 -3 7 -15 4 -12 -4 -22 -2 -22 4 0 5 27 7 68 4 37 -3 84 -7 105 -8z m107 2
c0 -5 -6 -10 -12 -11 -10 0 -10 -2 0 -6 6 -2 12 -10 12 -16 0 -6 -11 0 -24 12
l-24 23 -5 -24 c-4 -21 -4 -20 -6 5 -1 24 3 27 29 27 17 0 30 -4 30 -10z m30
0 c0 -5 -4 -10 -10 -10 -5 0 -10 5 -10 10 0 6 5 10 10 10 6 0 10 -4 10 -10z
m211 -53 c-10 -9 -11 -8 -5 6 3 10 9 15 12 12 3 -3 0 -11 -7 -18z m-630 4 c7
11 9 9 9 -6 0 -17 2 -17 10 -5 7 11 10 11 10 2 0 -10 5 -10 23 -1 19 11 20 10
10 -3 -7 -8 -10 -18 -6 -21 12 -13 -16 -7 -51 10 -19 9 -32 21 -29 27 4 6 8 5
11 -3 4 -11 6 -11 13 0z m524 -29 c-8 -8 -25 10 -19 20 4 6 9 5 15 -3 4 -7 6
-15 4 -17z m-419 1 c-1 -7 -5 -13 -9 -13 -4 0 -11 0 -17 0 -5 0 -7 6 -4 13 6
18 32 18 30 0z m579 7 c3 -5 1 -10 -4 -10 -6 0 -11 5 -11 10 0 6 2 10 4 10 3
0 8 -4 11 -10z m-437 -12 c-2 -6 -12 -12 -22 -14 -14 -2 -15 0 -5 12 14 17 32
19 27 2z m103 -1 c-1 -12 -15 -9 -19 4 -3 6 1 10 8 8 6 -3 11 -8 11 -12z
m-183 -22 c-3 -3 -9 2 -12 12 -6 14 -5 15 5 6 7 -7 10 -15 7 -18z m99 -7 c-3
-8 -6 -5 -6 6 -1 11 2 17 5 13 3 -3 4 -12 1 -19z m303 2 c0 -5 -4 -10 -10 -10
-5 0 -10 5 -10 10 0 6 5 10 10 10 6 0 10 -4 10 -10z m1636 -2 c4 -7 4 -10 -1
-6 -5 5 -13 -2 -20 -15 -6 -12 -17 -21 -25 -19 -8 2 -10 -3 -6 -15 5 -13 4
-15 -4 -7 -13 13 -2 46 13 37 6 -4 8 0 4 10 -4 10 0 17 11 20 9 3 18 5 19 6 1
0 5 -5 9 -11z m-1840 -33 c-4 -24 -16 -30 -16 -7 0 12 4 22 9 22 5 0 8 -7 7
-15z m-928 -7 c-2 -7 4 -13 12 -13 8 0 14 6 12 14 -3 12 0 12 12 2 8 -7 14
-21 13 -32 -1 -22 -8 -24 -24 -8 -14 14 -36 2 -27 -13 4 -7 2 -8 -5 -4 -9 6
-9 11 -1 21 8 9 8 15 0 20 -6 3 -8 11 -5 16 9 13 15 11 13 -3z m612 -23 c-6
-7 -22 -15 -36 -18 -18 -3 -22 -1 -15 6 6 6 11 19 11 29 0 15 3 16 25 6 18 -8
22 -14 15 -23z m421 -8 c-8 -8 -11 -3 -11 19 1 25 2 27 11 11 8 -14 8 -22 0
-30z m54 26 c-2 -10 -4 -26 -4 -35 -1 -10 -5 -18 -10 -18 -8 0 -6 21 5 58 5
18 13 14 9 -5z m1705 8 c0 -5 -7 -14 -15 -21 -10 -9 -15 -9 -15 -1 0 6 5 11
11 11 5 0 7 5 4 10 -3 6 -1 10 4 10 6 0 11 -4 11 -9z m-1660 -12 c0 -5 -5 -7
-12 -3 -8 5 -9 2 -5 -10 4 -10 3 -15 -3 -11 -15 10 -12 35 5 35 8 0 15 -5 15
-11z m-1181 -13 c9 -11 9 -16 -1 -22 -7 -4 -10 -4 -6 1 4 4 3 14 -3 22 -6 7
-9 13 -6 13 2 0 10 -6 16 -14z m701 5 c0 -5 -7 -21 -14 -37 -8 -15 -12 -32 -8
-38 12 -20 10 -35 -3 -29 -8 2 -11 12 -8 21 4 10 -3 6 -15 -8 l-20 -25 -12 29
c-6 16 -13 33 -16 38 -4 5 3 4 14 -3 12 -7 18 -17 15 -22 -3 -5 4 -3 16 5 12
7 21 20 20 28 -3 20 11 50 22 50 5 0 9 -4 9 -9z m-1069 -38 c13 -16 12 -17 -3
-4 -10 7 -18 15 -18 17 0 8 8 3 21 -13z m501 9 c-7 -5 -10 -17 -6 -28 4 -14 3
-15 -4 -5 -11 15 -24 1 -14 -15 13 -20 41 -24 46 -6 3 13 4 12 3 -3 -1 -11 2
-26 6 -32 5 -8 4 -13 -3 -13 -6 0 -13 7 -16 15 -7 17 -44 21 -44 4 0 -5 4 -8
9 -4 5 3 13 0 18 -7 11 -18 13 -39 3 -33 -5 3 -12 0 -15 -5 -4 -6 -17 -10 -28
-9 -36 2 -48 -1 -43 -10 4 -5 0 -11 -6 -14 -10 -3 -10 -9 -2 -24 11 -17 9 -19
-17 -15 -30 4 -37 16 -17 28 7 4 8 3 4 -4 -4 -7 -3 -12 3 -12 5 0 12 14 16 30
4 19 13 30 23 30 13 0 14 2 4 9 -11 6 -10 10 4 15 9 3 19 4 22 1 3 -3 -1 -5
-8 -5 -11 0 -11 -3 -2 -12 6 -6 15 -8 19 -4 13 12 9 61 -6 72 -18 14 -7 48 13
41 8 -3 17 1 20 9 3 8 11 14 18 14 11 0 11 -2 0 -8z m2658 -2 c0 -5 -5 -10
-11 -10 -5 0 -7 5 -4 10 3 6 8 10 11 10 2 0 4 -4 4 -10z m-2150 -11 c0 -5 5
-7 12 -3 7 4 8 3 4 -5 -6 -9 -11 -9 -22 0 -17 14 -18 19 -4 19 6 0 10 -5 10
-11z m-965 -19 c3 -6 -1 -7 -9 -4 -18 7 -21 14 -7 14 6 0 13 -4 16 -10z m348
-5 c-3 -9 -8 -14 -10 -11 -3 3 -2 9 2 15 9 16 15 13 8 -4z m464 0 c0 -8 -4
-12 -9 -9 -5 3 -6 10 -3 15 9 13 12 11 12 -6z m-840 -45 c3 0 0 6 -6 14 -9 11
-6 14 13 14 14 0 24 -5 23 -10 -1 -6 6 -15 15 -21 14 -9 21 -8 33 8 16 19 16
19 5 -2 -11 -24 -34 -30 -45 -14 -5 10 -37 7 -55 -4 -5 -3 -18 -1 -27 5 -15 9
-14 10 7 5 24 -6 24 -5 6 9 -11 9 -25 16 -30 16 -6 0 -4 5 4 10 10 6 20 3 33
-11 10 -10 20 -19 24 -19z m570 -19 c1 -33 0 -34 -7 -9 -4 14 -10 31 -13 36
-4 5 0 9 7 9 8 0 13 -14 13 -36z m2710 24 c0 -8 -4 -12 -9 -9 -5 3 -6 10 -3
15 9 13 12 11 12 -6z m-2522 -43 c6 -28 6 -28 14 -7 5 11 4 23 -1 26 -5 3 -2
9 7 12 9 4 13 3 10 -3 -10 -16 7 -12 27 7 18 16 18 16 12 -3 -7 -17 -6 -18 12
-4 15 11 16 11 7 0 -18 -19 -16 -28 4 -26 12 0 19 -7 21 -21 2 -13 -1 -23 -7
-23 -5 0 -13 -9 -16 -21 -6 -17 -9 -18 -22 -7 -13 10 -17 10 -20 1 -7 -21 -22
-15 -16 7 3 11 9 17 14 14 5 -3 9 0 9 5 0 6 -10 11 -23 11 -13 0 -28 5 -34 11
-8 8 -16 2 -29 -20 -10 -17 -22 -31 -26 -31 -9 0 29 59 47 73 6 5 0 5 -12 2
-14 -4 -23 -2 -23 4 0 6 4 11 10 11 5 0 6 8 3 18 -7 16 -6 16 11 -1 10 -9 19
-25 21 -35z m-72 18 c-10 -11 -18 -20 -19 -20 -1 0 0 9 3 20 3 11 12 20 19 20
11 0 10 -5 -3 -20z m740 -35 c-3 -8 0 -15 6 -15 6 0 11 -5 11 -11 0 -8 -4 -8
-14 0 -15 12 -18 54 -4 45 4 -3 5 -11 1 -19z m-1238 -5 c-3 -5 -12 -10 -18
-10 -7 0 -6 4 3 10 19 12 23 12 15 0z m31 -12 c4 -7 3 -8 -4 -4 -7 4 -12 2
-12 -5 0 -7 -3 -10 -6 -6 -6 5 3 27 11 27 2 0 7 -5 11 -12z m1095 -35 c-47
-17 -52 -16 -18 3 15 8 27 19 27 25 0 5 6 4 14 -3 11 -10 7 -15 -23 -25z
m-1037 10 c-10 -7 -23 -13 -28 -12 -6 0 -5 3 2 6 6 2 10 9 7 13 -3 5 4 8 15 7
20 -1 20 -2 4 -14z m878 -16 c-5 -18 -7 -19 -10 -4 -2 9 -9 17 -15 17 -7 0 -6
4 3 9 20 14 29 5 22 -22z m1944 -22 c1 -20 -2 -23 -13 -14 -9 8 -10 15 -3 24
5 6 8 15 5 18 -3 4 -2 5 2 2 4 -3 8 -17 9 -30z m-1680 -5 c0 -12 -4 -16 -9
-11 -5 5 -6 14 -3 20 10 15 12 14 12 -9z m1937 5 c-3 -9 -8 -14 -10 -11 -3 3
-2 9 2 15 9 16 15 13 8 -4z m-3088 -5 c-3 -5 -12 -10 -18 -10 -7 0 -6 4 3 10
19 12 23 12 15 0z m864 -34 c15 -18 15 -19 -1 -13 -23 8 -41 -15 -25 -33 10
-10 9 -12 -5 -7 -10 4 -18 2 -18 -3 0 -6 6 -10 13 -11 10 0 10 -2 0 -6 -7 -2
-13 -10 -13 -15 0 -6 3 -9 6 -5 3 3 13 -2 23 -11 16 -16 16 -18 -2 -34 -16
-15 -23 -16 -35 -5 -13 10 -15 9 -10 -8 4 -15 0 -21 -13 -21 -16 0 -16 2 3 28
18 26 37 41 23 19 -9 -16 12 -22 25 -7 9 12 5 18 -22 32 -28 14 -30 18 -14 23
16 6 16 8 2 20 -13 11 -18 10 -30 -2 -8 -8 -12 -18 -8 -22 4 -5 2 -5 -5 -2
-16 10 -4 44 18 50 10 3 19 1 19 -4 0 -6 11 2 25 17 14 15 23 30 20 33 -4 3
-9 1 -13 -5 -4 -6 -16 -14 -27 -17 -19 -7 -19 -6 -2 7 9 7 17 18 17 24 0 15
24 21 29 8 2 -6 11 -20 20 -30z m2036 25 c-3 -6 -14 -10 -23 -10 -15 1 -15 2
1 6 9 2 17 9 17 15 0 6 3 9 6 5 3 -3 3 -10 -1 -16z m-1580 -1 c-3 -5 -1 -10 4
-10 6 0 11 5 11 10 0 6 10 10 23 10 21 -1 20 -2 -6 -16 -27 -15 -52 -11 -42 7
4 5 8 9 11 9 3 0 2 -4 -1 -10z m72 -4 c-3 -8 -3 -17 1 -20 13 -14 11 -44 -4
-50 -10 -4 -13 -2 -7 7 11 18 12 37 2 37 -5 0 -9 -4 -9 -9 0 -14 -29 -21 -36
-9 -4 7 -3 8 5 4 7 -4 18 5 29 23 18 32 28 41 19 17z m-452 -14 c-3 -3 -11 0
-18 7 -9 10 -8 11 6 5 10 -3 15 -9 12 -12z m322 -7 c-1 -1 -15 -9 -32 -19
l-30 -17 23 20 c12 10 22 25 22 33 0 10 2 10 10 -2 5 -8 8 -15 7 -15z m1908 6
c3 -5 2 -12 -3 -15 -5 -3 -9 1 -9 9 0 17 3 19 12 6z m-1710 -21 c-10 -11 -23
-20 -28 -20 -13 0 24 39 37 39 5 1 1 -8 -9 -19z m-1641 2 c2 -4 -5 -9 -17 -9
-17 -2 -19 0 -7 7 18 12 18 12 24 2z m1087 -15 c-6 -8 -9 -23 -5 -33 5 -17 4
-17 -6 -2 -8 13 -7 22 2 37 7 11 14 18 17 16 2 -3 -1 -11 -8 -18z m404 3 c-10
-11 -22 -20 -27 -20 -10 0 24 38 36 39 5 1 1 -8 -9 -19z m-1225 0 c0 -5 -5
-10 -11 -10 -5 0 -7 5 -4 10 3 6 8 10 11 10 2 0 4 -4 4 -10z m3060 6 c0 -3 -4
-8 -10 -11 -5 -3 -10 -1 -10 4 0 6 5 11 10 11 6 0 10 -2 10 -4z m-2117 -21
c-3 -9 -8 -14 -10 -11 -3 3 -2 9 2 15 9 16 15 13 8 -4z m157 11 c0 -2 -8 -10
-17 -17 -16 -13 -17 -12 -4 4 13 16 21 21 21 13z m-630 -16 c8 -5 11 -10 5
-10 -5 0 -17 5 -25 10 -8 5 -10 10 -5 10 6 0 17 -5 25 -10z m945 0 c3 -6 -1
-7 -9 -4 -18 7 -21 14 -7 14 6 0 13 -4 16 -10z m-181 -32 c-3 -4 -11 -8 -17
-7 -9 0 -9 2 0 5 7 3 9 13 6 22 -4 14 -3 14 5 2 6 -8 8 -18 6 -22z m146 28 c0
-2 -8 -10 -17 -17 -16 -13 -17 -12 -4 4 13 16 21 21 21 13z m1381 -19 c-10 -9
-11 -8 -5 6 3 10 9 15 12 12 3 -3 0 -11 -7 -18z m507 -2 c-3 -3 -9 2 -12 12
-6 14 -5 15 5 6 7 -7 10 -15 7 -18z m-2846 -20 c2 -11 10 -20 18 -20 8 0 15
-7 15 -15 0 -10 -10 -15 -27 -15 -17 -1 -28 4 -28 13 0 7 -5 10 -10 7 -6 -4
-8 -10 -5 -15 3 -5 1 -11 -5 -15 -19 -12 -10 25 11 46 12 12 18 27 14 37 -4
11 -3 13 3 7 6 -5 12 -19 14 -30z m644 23 c4 -7 4 -10 -1 -6 -4 4 -15 2 -24
-5 -14 -11 -14 -10 -2 6 16 20 18 21 27 5z m30 -15 c-10 -10 -19 5 -10 18 6
11 8 11 12 0 2 -7 1 -15 -2 -18z m24 -3 c-11 -16 -26 -33 -32 -36 -7 -4 1 9
16 29 34 44 46 50 16 7z m1920 26 c0 -3 -4 -8 -10 -11 -5 -3 -10 -1 -10 4 0 6
5 11 10 11 6 0 10 -2 10 -4z m-2049 -39 c-10 -9 -11 -8 -5 6 3 10 9 15 12 12
3 -3 0 -11 -7 -18z m183 11 c-3 -5 -10 -5 -16 -2 -7 5 -9 1 -5 -9 5 -14 -9
-35 -17 -26 -9 9 14 46 28 46 8 0 13 -4 10 -9z m260 4 c3 -5 -1 -9 -9 -9 -8 0
-12 4 -9 9 3 4 7 8 9 8 2 0 6 -4 9 -8z m46 2 c0 -8 -19 -13 -24 -6 -3 5 1 9 9
9 8 0 15 -2 15 -3z m44 -2 c3 -5 -1 -9 -9 -9 -8 0 -12 4 -9 9 3 4 7 8 9 8 2 0
6 -4 9 -8z m-844 -23 c0 -5 5 -7 10 -4 6 3 10 2 10 -4 0 -5 -4 -13 -10 -16 -5
-3 -10 -1 -10 6 0 7 -9 5 -22 -7 -13 -10 -20 -15 -16 -10 4 5 3 15 -3 23 -9 9
-8 13 0 13 6 0 11 -5 11 -11 0 -5 5 -7 10 -4 6 4 8 11 5 16 -4 5 -1 9 4 9 6 0
11 -5 11 -11z m394 2 c-9 -9 -45 -11 -39 -2 3 6 14 9 25 8 10 -1 17 -3 14 -6z
m133 3 c-3 -3 -12 -4 -19 -1 -8 3 -5 6 6 6 11 1 17 -2 13 -5z m119 -20 c-9 -9
-19 -14 -22 -11 -3 2 3 12 12 21 9 9 19 15 21 12 3 -3 -2 -13 -11 -22z m1401
11 c0 -8 -4 -12 -9 -9 -5 3 -6 10 -3 15 9 13 12 11 12 -6z m-2244 -25 c-3 -11
-9 -17 -15 -14 -5 3 -4 12 3 20 16 19 18 18 12 -6z m140 6 c3 -8 -2 -20 -11
-27 -14 -11 -15 -11 -5 0 6 7 9 20 6 27 -3 8 -3 14 0 14 3 0 7 -6 10 -14z
m2278 -13 c-8 -15 -10 -15 -11 -2 0 17 10 32 18 25 2 -3 -1 -13 -7 -23z
m-3151 6 c0 -5 -4 -7 -10 -4 -5 3 -10 1 -10 -6 0 -7 -3 -10 -6 -6 -8 7 4 27
17 27 5 0 9 -5 9 -11z m53 -6 c-4 -9 0 -11 11 -7 9 3 14 9 11 14 -2 4 9 7 24
6 32 -1 32 -16 0 -16 -11 0 -18 -4 -15 -8 2 -4 -4 -8 -15 -9 -21 -2 -70 -33
-51 -33 6 0 12 -5 12 -11 0 -8 -4 -8 -14 0 -11 9 -15 8 -20 -5 -4 -9 -4 -19
-1 -22 3 -3 5 0 5 6 0 7 5 12 11 12 5 0 7 -6 3 -12 -4 -7 2 -4 14 6 19 17 22
17 22 3 0 -10 -3 -18 -7 -18 -57 -9 -63 -7 -63 14 0 20 0 20 -14 1 -15 -19
-15 -19 -11 1 2 11 4 21 4 23 1 1 1 5 0 9 -1 9 32 26 38 19 4 -3 1 -6 -5 -6
-7 0 -12 -4 -12 -10 0 -15 12 -12 40 11 21 17 22 20 5 15 -19 -6 -19 -5 -2 8
13 10 15 15 5 19 -7 3 -3 4 8 4 14 -1 20 -6 17 -14z m1317 7 c0 -5 -2 -10 -4
-10 -3 0 -8 5 -11 10 -3 6 -1 10 4 10 6 0 11 -4 11 -10z m75 -30 c2 -17 -1
-33 -6 -36 -5 -3 -6 3 -2 12 4 11 2 15 -4 11 -9 -6 -10 6 -4 47 2 19 14 -5 16
-34z m2118 25 c-3 -9 -8 -14 -10 -11 -3 3 -2 9 2 15 9 16 15 13 8 -4z m-2169
-11 c3 -8 2 -12 -4 -9 -6 3 -10 10 -10 16 0 14 7 11 14 -7z m1576 6 c0 -5 -5
-10 -11 -10 -5 0 -7 5 -4 10 3 6 8 10 11 10 2 0 4 -4 4 -10z m-2295 -9 c-3 -5
-1 -12 5 -16 5 -3 10 -1 10 4 0 6 4 11 10 11 5 0 6 -7 3 -17 -4 -11 -3 -14 5
-9 7 4 12 2 12 -3 0 -15 -21 -13 -44 4 -15 12 -15 35 0 35 3 0 3 -4 -1 -9z
m595 5 c0 -2 -8 -10 -17 -17 -16 -13 -17 -12 -4 4 13 16 21 21 21 13z m220 -6
c0 -5 -4 -10 -10 -10 -5 0 -10 5 -10 10 0 6 5 10 10 10 6 0 10 -4 10 -10z
m1851 -17 c-12 -20 -14 -14 -5 12 4 9 9 14 11 11 3 -2 0 -13 -6 -23z m-2300
-2 c-7 -5 -11 -14 -7 -20 5 -7 1 -9 -9 -5 -14 6 -14 8 1 25 10 11 20 17 23 14
3 -4 -1 -10 -8 -14z m304 9 c-3 -5 -1 -10 6 -10 7 0 10 -2 7 -5 -3 -3 -13 -2
-22 1 -14 5 -15 9 -4 15 17 11 20 11 13 -1z m-446 -23 c0 -9 -2 -8 -6 1 -2 6
-10 9 -15 6 -7 -4 -8 -2 -4 5 9 13 26 5 25 -12z m411 19 c0 -2 -8 -10 -17 -17
-16 -13 -17 -12 -4 4 13 16 21 21 21 13z m-1386 -17 c-2 -4 2 -10 8 -12 8 -4
9 -6 2 -6 -6 -1 -17 5 -23 12 -8 10 -7 14 4 14 8 0 12 -4 9 -8z m196 -11 c0
-13 -23 -5 -28 10 -2 7 2 10 12 6 9 -3 16 -11 16 -16z m1290 0 c0 -11 -7 -18
-19 -18 -11 0 -21 -3 -24 -7 -2 -5 -2 -3 -1 4 2 6 -2 14 -9 17 -7 3 -1 3 13
-1 21 -5 23 -4 13 8 -10 12 -8 15 8 15 12 0 19 -7 19 -18z m120 18 c0 -2 -8
-10 -17 -17 -16 -13 -17 -12 -4 4 13 16 21 21 21 13z m-540 -10 c0 -3 -4 -8
-10 -11 -5 -3 -10 -1 -10 4 0 6 5 11 10 11 6 0 10 -2 10 -4z m489 -17 c-16
-10 -23 -4 -14 10 3 6 11 8 17 5 6 -4 5 -9 -3 -15z m1934 -4 c-7 -21 -12 -19
-10 4 0 11 5 18 9 15 4 -3 5 -11 1 -19z m-2722 2 c-1 -12 -15 -9 -19 4 -3 6 1
10 8 8 6 -3 11 -8 11 -12z m650 -4 c13 -16 12 -17 -3 -4 -17 13 -22 21 -14 21
2 0 10 -8 17 -17z m-15 -15 l19 -23 -21 18 c-17 14 -23 15 -27 5 -4 -11 -7
-10 -18 1 -9 9 -9 11 -1 7 6 -4 12 -2 12 3 0 18 16 13 36 -11z m208 6 c3 -8 2
-13 -3 -9 -5 3 -19 -7 -31 -22 -20 -25 -21 -25 -8 -3 34 59 33 58 42 34z m60
8 c2 -4 -4 -8 -14 -8 -10 0 -16 4 -14 8 3 4 9 8 14 8 5 0 11 -4 14 -8z m1623
-19 c1 -22 -1 -24 -8 -10 -6 9 -7 22 -4 27 9 14 10 13 12 -17z m458 6 c-3 -12
-7 -24 -10 -27 -3 -3 -3 5 -1 19 6 30 5 29 10 29 3 0 3 -10 1 -21z m-3748 -11
c-3 -8 -6 -5 -6 6 -1 11 2 17 5 13 3 -3 4 -12 1 -19z m1693 2 c-11 -21 -30
-27 -30 -9 0 5 4 8 9 5 5 -3 11 1 15 9 3 8 8 15 11 15 3 0 1 -9 -5 -20z
m-1759 -3 c-1 -4 -4 -7 -7 -6 -4 0 -10 -5 -14 -11 -5 -8 -9 -7 -13 5 -4 9 -3
13 3 10 6 -3 10 -1 10 5 0 7 5 10 11 8 6 -2 10 -7 10 -11z m1303 5 c2 -4 -4
-8 -14 -8 -10 0 -16 4 -14 8 3 4 9 8 14 8 5 0 11 -4 14 -8z m299 -3 c-6 -6 -9
-18 -6 -25 3 -9 0 -12 -9 -9 -8 3 -15 12 -15 20 0 8 4 12 8 9 4 -2 10 0 14 6
3 5 9 10 13 10 3 0 1 -5 -5 -11z m1404 -9 c1 -11 -2 -22 -8 -25 -7 -5 -7 18 0
43 3 8 7 -1 8 -18z m783 12 c0 -5 -7 -17 -15 -28 -15 -18 -15 -18 -8 0 5 14 3
17 -7 11 -9 -5 -11 -4 -6 4 4 6 12 9 17 6 5 -4 9 -1 9 4 0 6 2 11 5 11 3 0 5
-4 5 -8z m99 -1 c7 -5 10 -14 7 -20 -4 -6 -4 -11 1 -10 19 3 27 -2 14 -10 -18
-12 -51 -2 -51 16 0 8 5 11 10 8 6 -3 10 -2 10 4 0 5 -6 12 -12 14 -7 3 -8 6
-3 6 6 0 16 -3 24 -8z m-2827 -17 c-12 -8 -22 -23 -22 -32 0 -14 -2 -14 -9 -3
-6 10 -3 20 12 32 12 10 26 18 32 19 5 0 -1 -7 -13 -16z m75 -17 c0 -12 -1
-16 -4 -9 -3 6 -9 12 -14 12 -6 0 -7 -6 -3 -12 4 -7 3 -10 -1 -5 -16 14 -12
44 5 40 9 -2 16 -14 17 -26z m116 19 c4 -10 1 -13 -8 -9 -8 3 -12 9 -9 14 7
12 11 11 17 -5z m157 -4 c0 -15 -2 -15 -10 -2 -8 12 -10 11 -10 -7 0 -13 6
-23 14 -23 8 0 18 -5 22 -12 5 -7 3 -8 -5 -4 -8 5 -14 0 -18 -14 -3 -12 -11
-19 -19 -16 -7 3 -16 1 -19 -5 -10 -16 24 -22 42 -8 14 12 14 10 -2 -14 -10
-15 -15 -30 -12 -33 3 -3 10 4 17 15 6 12 16 18 22 15 7 -5 9 0 5 15 -4 18 -3
20 9 10 8 -6 14 -17 14 -24 0 -17 -30 -28 -31 -12 0 7 -5 1 -10 -12 -6 -16
-14 -21 -26 -17 -9 4 -20 1 -24 -6 -6 -10 -12 -9 -26 6 -10 10 -12 16 -5 12 6
-4 12 -2 12 4 0 6 4 9 9 5 5 -3 13 0 17 6 5 8 3 9 -6 4 -8 -5 -11 -4 -6 3 3 6
2 13 -4 17 -5 3 -10 -1 -10 -9 0 -9 -4 -16 -10 -16 -16 0 -12 10 21 51 26 33
28 40 15 45 -12 5 -14 10 -6 19 5 6 8 14 5 16 -2 3 5 5 15 6 13 1 20 -4 20
-15z m138 1 c-14 -17 -28 -16 -28 1 0 8 9 14 19 13 15 -1 17 -4 9 -14z m1517
7 c-3 -5 -12 -10 -18 -10 -7 0 -6 4 3 10 19 12 23 12 15 0z m269 -6 c5 -14 4
-15 -9 -4 -17 14 -19 20 -6 20 5 0 12 -7 15 -16z m-1890 -8 c-3 -7 2 -16 12
-20 12 -5 15 -2 10 11 -4 10 -4 14 0 10 4 -4 13 -2 20 4 9 8 11 5 7 -10 -3
-12 -10 -21 -16 -21 -6 0 -7 -3 -3 -7 10 -11 40 -10 47 1 4 5 13 5 22 0 13 -8
13 -11 1 -22 -8 -7 -14 -9 -14 -4 0 5 -10 9 -22 8 -32 -1 -87 34 -81 51 3 7 9
13 14 13 4 0 6 -6 3 -14z m366 10 c0 -2 -6 -9 -14 -15 -11 -9 -16 -9 -22 0 -4
7 -3 9 4 5 6 -3 13 -2 17 4 6 10 15 14 15 6z m1495 -6 c3 -5 1 -10 -4 -10 -6
0 -11 5 -11 10 0 6 2 10 4 10 3 0 8 -4 11 -10z m-2244 -33 c-10 -9 -11 -8 -5
6 3 10 9 15 12 12 3 -3 0 -11 -7 -18z m644 5 c-3 -3 -11 0 -18 7 -9 10 -8 11
6 5 10 -3 15 -9 12 -12z m1285 -10 c-5 -2 -10 -11 -10 -20 0 -24 -13 -5 -15
22 0 20 2 22 17 12 10 -6 14 -12 8 -14z m303 -18 c-4 -10 0 -13 13 -8 18 5 18
5 0 -10 -24 -19 -46 -5 -27 18 8 10 9 16 1 21 -5 3 -10 12 -10 18 0 7 7 4 15
-6 7 -11 11 -25 8 -33z m-860 21 c-3 -9 -8 -14 -10 -11 -3 3 -2 9 2 15 9 16
15 13 8 -4z m-1430 -10 c-3 -9 -8 -14 -10 -11 -3 3 -2 9 2 15 9 16 15 13 8 -4z
m155 3 c-2 -7 3 -12 10 -10 8 1 11 -2 7 -8 -3 -5 -1 -10 4 -10 6 0 11 -5 11
-12 0 -6 -10 -2 -23 10 -13 12 -28 19 -32 15 -5 -5 -3 0 4 10 16 20 22 22 19
5z m449 -3 c0 -8 -4 -12 -9 -9 -5 3 -6 10 -3 15 9 13 12 11 12 -6z m56 3 c-2
-5 -11 -8 -20 -8 -10 0 -13 -6 -9 -16 3 -8 2 -13 -3 -10 -5 3 -14 0 -20 -8 -9
-10 -8 -16 4 -26 14 -11 13 -14 -4 -27 -12 -7 -18 -20 -15 -28 4 -8 1 -15 -6
-15 -6 0 -8 5 -5 10 3 6 1 10 -4 10 -6 0 -2 9 10 21 20 20 20 22 3 40 -15 17
-15 19 -1 19 15 0 41 33 32 41 -2 2 7 4 20 4 13 0 21 -3 18 -7z m1006 -22 c-3
-3 -11 5 -18 17 -13 21 -12 21 5 5 10 -10 16 -20 13 -22z m381 24 c0 -5 -4
-10 -10 -10 -5 0 -10 5 -10 10 0 6 5 10 10 10 6 0 10 -4 10 -10z m280 6 c0 -3
-4 -8 -10 -11 -5 -3 -10 -1 -10 4 0 6 5 11 10 11 6 0 10 -2 10 -4z m400 0 c0
-2 -7 -7 -16 -10 -8 -3 -12 -2 -9 4 6 10 25 14 25 6z m-3593 -28 c-3 -8 -6 -5
-6 6 -1 11 2 17 5 13 3 -3 4 -12 1 -19z m199 7 c-16 -17 -36 -20 -36 -6 0 8
17 16 43 20 5 0 2 -6 -7 -14z m1722 -11 c-12 -12 -17 -13 -23 -3 -5 8 -4 10 4
5 6 -4 14 0 17 9 4 9 9 13 12 10 3 -3 -1 -13 -10 -21z m335 8 c-4 -10 -8 -11
-13 -2 -5 9 -9 9 -14 1 -4 -6 -12 -11 -19 -11 -6 0 -3 6 7 13 24 18 46 17 39
-1z m-820 -7 c-3 -9 -8 -14 -10 -11 -3 3 -2 9 2 15 9 16 15 13 8 -4z m1470
-15 c-3 -11 -9 -20 -14 -20 -14 0 -11 28 4 33 6 3 13 6 14 6 0 1 -1 -8 -4 -19z
m621 -5 c-7 -17 -20 -20 -29 -6 -3 5 3 12 12 14 10 3 19 5 20 6 1 0 0 -6 -3
-14z m-2639 -4 c3 -5 2 -12 -3 -15 -5 -3 -9 1 -9 9 0 17 3 19 12 6z m111 -8
c18 -25 17 -31 -8 -44 -22 -12 -22 -11 -5 8 18 21 12 40 -8 23 -9 -7 -17 -5
-26 7 -13 16 -12 17 3 5 10 -8 19 -9 22 -3 3 5 0 12 -6 14 -10 4 -9 6 1 6 8 1
20 -7 27 -16z m358 -16 c-3 -9 -11 -14 -17 -10 -6 4 -8 0 -4 -11 4 -10 3 -15
-3 -11 -6 3 -10 1 -10 -4 0 -6 -7 -11 -15 -11 -8 0 -14 -3 -14 -7 3 -18 -1
-46 -6 -41 -13 12 -12 44 1 56 8 7 14 10 14 6 0 -4 9 5 20 19 11 14 20 31 20
38 0 9 3 10 10 3 6 -6 8 -18 4 -27z m295 31 c-2 -2 -17 -14 -33 -28 l-29 -25
19 27 c10 15 25 28 33 28 8 0 12 -1 10 -2z m881 -13 c0 -2 -7 -5 -15 -9 -9 -3
-15 0 -15 9 0 9 6 12 15 9 8 -4 15 -7 15 -9z m-998 -39 c7 5 8 2 3 -6 -6 -10
-12 -7 -26 11 -9 13 -15 28 -11 33 3 6 10 -2 15 -17 5 -15 13 -24 19 -21z
m1469 21 c-10 -9 -11 -8 -5 6 3 10 9 15 12 12 3 -3 0 -11 -7 -18z m104 2 c-4
-5 -1 -9 6 -9 7 0 4 -6 -6 -14 -11 -8 -28 -12 -39 -10 -25 5 -36 17 -11 12 13
-2 23 5 29 19 6 12 14 19 18 17 5 -3 6 -10 3 -15z m-1729 -16 c-10 -10 -19 5
-10 18 6 11 8 11 12 0 2 -7 1 -15 -2 -18z m681 12 c-6 -7 -14 -9 -15 -4 -2 5
-9 6 -14 3 -6 -4 -8 -3 -5 2 3 5 15 10 26 11 17 1 18 -1 8 -12z m503 5 c0 -5
-2 -10 -4 -10 -3 0 -8 5 -11 10 -3 6 -1 10 4 10 6 0 11 -4 11 -10z m-1620 -4
c0 -3 -4 -8 -10 -11 -5 -3 -10 -1 -10 4 0 6 5 11 10 11 6 0 10 -2 10 -4z
m1900 -26 c0 -10 -4 -21 -8 -24 -5 -3 -9 8 -9 24 0 16 4 27 9 24 4 -3 8 -14 8
-24z m52 -16 c-2 -13 -8 -24 -13 -24 -12 0 -11 27 1 35 5 3 7 13 4 23 -4 13
-3 14 4 4 5 -7 7 -24 4 -38z m417 3 c1 -5 -6 -1 -15 7 -8 9 -12 21 -8 28 5 8
10 6 15 -8 4 -10 8 -23 8 -27z m51 33 c0 -5 -5 -10 -11 -10 -5 0 -7 5 -4 10 3
6 8 10 11 10 2 0 4 -4 4 -10z m-3263 -13 c12 5 13 2 6 -13 -6 -10 -12 -24 -14
-31 -2 -7 -9 -9 -17 -4 -9 5 -11 17 -6 37 4 16 9 24 11 17 3 -7 11 -9 20 -6z
m1323 -2 c0 -8 -2 -15 -4 -15 -2 0 -6 7 -10 15 -3 8 -1 15 4 15 6 0 10 -7 10
-15z m1095 6 c3 -5 1 -12 -4 -15 -5 -3 -11 1 -15 9 -6 16 9 21 19 6z m-1758
-23 c-3 -8 -6 -5 -6 6 -1 11 2 17 5 13 3 -3 4 -12 1 -19z m1468 13 c-3 -5 0
-11 7 -14 7 -2 5 -3 -4 -2 -13 2 -17 -3 -14 -18 2 -12 9 -21 15 -20 6 2 11 -4
11 -13 0 -10 -4 -12 -12 -7 -7 4 -21 6 -30 5 -12 -2 -18 3 -18 15 0 15 2 16
10 3 8 -12 10 -10 10 11 0 14 5 30 12 37 14 14 21 16 13 3z m263 -13 c-2 -7 3
-12 11 -13 8 0 16 -6 19 -14 3 -8 0 -11 -6 -7 -6 3 -13 2 -17 -4 -16 -25 -27
9 -16 48 3 8 11 0 9 -10z m742 -21 c0 -4 -6 -2 -14 5 -8 7 -12 17 -9 22 5 8
23 -12 23 -27z m25 24 c3 -5 1 -12 -5 -16 -5 -3 -10 1 -10 9 0 18 6 21 15 7z
m280 0 c3 -5 2 -12 -3 -15 -5 -3 -9 1 -9 9 0 17 3 19 12 6z m-1968 -26 c-7 -7
-15 -11 -19 -9 -3 2 -9 -4 -11 -13 -3 -10 -4 -6 -4 8 1 19 5 25 16 21 9 -3 12
-1 7 6 -5 8 -2 10 8 6 12 -5 13 -9 3 -19z m449 10 c13 -13 13 -15 1 -15 -8 0
-17 7 -21 15 -3 8 -3 15 0 15 3 0 12 -7 20 -15z m378 0 c-4 -8 -10 -15 -15
-15 -4 0 -6 7 -3 15 4 8 10 15 15 15 4 0 6 -7 3 -15z m670 6 c3 -5 -7 -14 -24
-19 -28 -10 -29 -10 -17 9 13 20 32 25 41 10z m-104 -11 c0 -5 -5 -10 -11 -10
-5 0 -7 5 -4 10 3 6 8 10 11 10 2 0 4 -4 4 -10z m-1340 -6 c0 -8 -19 -13 -24
-6 -3 5 1 9 9 9 8 0 15 -2 15 -3z m85 -4 c4 -6 1 -9 -7 -8 -7 2 -12 -5 -11
-16 1 -13 -2 -15 -10 -7 -7 7 -6 15 3 26 15 18 17 18 25 5z m1595 -6 c0 -2 -9
-4 -20 -4 -11 0 -20 4 -20 9 0 5 9 7 20 4 11 -3 20 -7 20 -9z m-2543 -14 c1
-11 -2 -18 -8 -15 -5 4 -9 1 -9 -6 0 -7 -3 -10 -6 -7 -5 5 12 48 19 48 2 0 3
-9 4 -20z m1173 10 c0 -5 -2 -10 -4 -10 -3 0 -8 5 -11 10 -3 6 -1 10 4 10 6 0
11 -4 11 -10z m1470 1 c0 -6 -5 -13 -12 -17 -6 -4 -8 -3 -4 4 3 5 0 13 -6 15
-8 3 -6 6 5 6 9 1 17 -3 17 -8z m-3210 -17 c0 -8 -5 -12 -10 -9 -6 4 -8 11 -5
16 9 14 15 11 15 -7z m772 -6 c-7 -7 -12 -8 -12 -2 0 14 12 26 19 19 2 -3 -1
-11 -7 -17z m633 12 c3 -5 1 -10 -4 -10 -6 0 -11 5 -11 10 0 6 2 10 4 10 3 0
8 -4 11 -10z m789 1 c-8 -8 -34 -10 -38 -2 -3 4 6 7 19 7 14 0 22 -2 19 -5z
m176 -1 c0 -5 -2 -10 -4 -10 -3 0 -8 5 -11 10 -3 6 -1 10 4 10 6 0 11 -4 11
-10z m-2327 -14 c4 -10 1 -13 -9 -9 -15 6 -19 23 -5 23 5 0 11 -7 14 -14z
m1591 -4 c2 -4 -4 -8 -14 -8 -10 0 -16 4 -14 8 3 4 9 8 14 8 5 0 11 -4 14 -8z
m126 4 c0 -2 -7 -7 -16 -10 -8 -3 -12 -2 -9 4 6 10 25 14 25 6z m205 -6 c-3
-5 -12 -10 -18 -10 -7 0 -6 4 3 10 19 12 23 12 15 0z m730 0 c-3 -5 -11 -10
-16 -10 -6 0 -7 5 -4 10 3 6 11 10 16 10 6 0 7 -4 4 -10z"/>
<path d="M1235 3520 c-3 -5 1 -10 10 -10 9 0 13 5 10 10 -3 6 -8 10 -10 10 -2
0 -7 -4 -10 -10z"/>
<path d="M1560 3296 c7 -7 13 -7 20 0 6 6 3 10 -10 10 -13 0 -16 -4 -10 -10z"/>
<path d="M731 3154 l-12 -27 25 17 c14 9 32 16 41 16 9 0 13 5 10 10 -13 20
-52 10 -64 -16z"/>
<path d="M850 2945 c0 -8 5 -15 10 -15 6 0 10 7 10 15 0 8 -4 15 -10 15 -5 0
-10 -7 -10 -15z"/>
<path d="M770 2826 c0 -2 7 -12 16 -20 17 -18 39 -22 29 -6 -7 11 -45 33 -45
26z"/>
<path d="M2057 2613 c-14 -13 -6 -24 13 -18 10 3 29 1 40 -5 12 -6 29 -8 38
-4 9 4 28 8 42 10 43 3 46 6 15 14 -38 10 -140 12 -148 3z"/>
<path d="M1761 2331 c-19 -12 -5 -31 24 -31 13 0 27 -4 30 -10 3 -5 10 -10 16
-10 5 0 4 9 -3 20 -11 17 -10 22 2 30 11 7 6 10 -20 10 -19 0 -41 -4 -49 -9z"/>
<path d="M2162 2248 c6 -18 22 -20 43 -3 19 14 18 14 -13 15 -22 0 -32 -4 -30
-12z"/>
<path d="M2221 2204 c0 -11 3 -14 6 -6 3 7 2 16 -1 19 -3 4 -6 -2 -5 -13z"/>
<path d="M2075 2050 c4 -6 11 -8 16 -5 14 9 11 15 -7 15 -8 0 -12 -5 -9 -10z"/>
<path d="M1930 1105 c-11 -13 -10 -14 4 -9 9 3 16 10 16 15 0 13 -6 11 -20 -6z"/>
<path d="M850 1050 c0 -6 7 -13 15 -16 8 -4 13 -10 10 -14 -7 -11 22 -33 35
-25 6 4 -2 18 -21 36 -34 32 -39 34 -39 19z"/>
<path d="M922 991 c-8 -4 -12 -17 -10 -27 2 -13 -2 -18 -12 -16 -8 2 -12 0 -7
-4 12 -12 47 -12 40 0 -3 6 8 -4 26 -23 25 -28 34 -32 44 -22 9 10 8 15 -8 27
-39 27 -65 56 -59 65 6 11 3 11 -14 0z"/>
<path d="M1120 775 c0 -8 2 -15 4 -15 2 0 6 7 10 15 3 8 1 15 -4 15 -6 0 -10
-7 -10 -15z"/>
<path d="M645 780 c-3 -5 -1 -10 4 -10 6 0 11 5 11 10 0 6 -2 10 -4 10 -3 0
-8 -4 -11 -10z"/>
<path d="M650 721 c0 -6 4 -12 8 -15 5 -3 9 1 9 9 0 8 -4 15 -9 15 -4 0 -8 -4
-8 -9z"/>
<path d="M676 644 c-9 -23 -2 -28 13 -10 7 8 8 17 3 20 -6 3 -13 -1 -16 -10z"/>
<path d="M1012 638 c-15 -15 -15 -28 -1 -28 5 0 7 6 3 13 -4 6 1 5 12 -4 20
-17 54 -22 54 -7 0 5 -9 6 -20 3 -16 -5 -20 -2 -20 14 0 24 -10 27 -28 9z"/>
<path d="M970 385 c0 -2 10 -10 23 -16 20 -11 21 -11 8 4 -13 16 -31 23 -31
12z"/>
<path d="M1390 795 c0 -8 4 -15 10 -15 5 0 7 7 4 15 -4 8 -8 15 -10 15 -2 0
-4 -7 -4 -15z"/>
<path d="M1424 789 c-9 -10 -25 -19 -34 -19 -10 0 -24 -8 -31 -17 -13 -17 -13
-17 5 -3 18 14 19 13 13 -45 -4 -33 -4 -54 -1 -47 3 6 10 10 15 6 5 -3 9 -1 9
5 0 5 -6 11 -12 14 -10 3 -10 7 -1 17 6 7 9 19 6 26 -3 8 6 25 21 39 14 13 26
20 26 15 0 -6 5 -10 10 -10 6 0 10 8 10 18 0 15 2 15 11 2 8 -12 10 -12 7 -1
-6 21 -35 21 -54 0z"/>
<path d="M1485 776 c-12 -14 -15 -56 -3 -56 4 0 8 5 8 11 0 5 6 7 13 3 9 -5 9
-4 0 6 -9 9 -9 17 -2 26 13 16 -3 26 -16 10z"/>
<path d="M1422 758 c-9 -9 -7 -14 6 -24 10 -8 12 -13 5 -14 -7 0 -13 -9 -13
-21 0 -11 5 -17 10 -14 6 3 10 -2 11 -12 0 -14 2 -14 9 5 5 12 15 22 21 22 7
0 9 3 6 6 -4 4 -13 2 -20 -4 -17 -15 -30 -3 -16 14 6 8 7 14 0 18 -6 4 -8 13
-4 21 6 18 1 19 -15 3z"/>
<path d="M1290 739 l-25 -21 24 3 c14 2 25 12 27 22 3 21 5 21 -26 -4z"/>
<path d="M1450 750 c0 -5 5 -10 11 -10 5 0 7 5 4 10 -3 6 -8 10 -11 10 -2 0
-4 -4 -4 -10z"/>
<path d="M1645 720 c-4 -6 -12 -7 -18 -3 -7 4 -6 -1 2 -10 8 -10 14 -16 15
-15 1 2 8 11 15 21 8 10 9 17 3 17 -6 0 -14 -5 -17 -10z"/>
<path d="M1465 680 c-3 -5 -1 -10 4 -10 6 0 11 5 11 10 0 6 -2 10 -4 10 -3 0
-8 -4 -11 -10z"/>
<path d="M1320 659 c0 -6 -6 -9 -13 -6 -8 3 -14 0 -14 -7 0 -19 33 -13 34 6 1
10 0 18 -3 18 -2 0 -4 -5 -4 -11z"/>
<path d="M1415 660 c-3 -5 -1 -10 4 -10 6 0 11 5 11 10 0 6 -2 10 -4 10 -3 0
-8 -4 -11 -10z"/>
<path d="M1117 643 c-3 -5 -1 -17 4 -28 7 -17 8 -17 8 8 1 27 -4 34 -12 20z"/>
<path d="M1144 636 c-3 -7 -4 -17 -3 -22 1 -5 -1 -21 -5 -35 -7 -25 -14 -56
-15 -72 -1 -5 -5 -6 -10 -3 -5 3 -7 16 -3 28 3 13 1 19 -6 15 -11 -8 -11 -25
1 -44 13 -21 25 -15 31 15 14 63 17 78 21 105 4 28 -2 36 -11 13z"/>
<path d="M1265 641 c-3 -5 -2 -12 3 -15 5 -3 9 1 9 9 0 17 -3 19 -12 6z"/>
<path d="M280 620 c18 -12 30 -13 30 -2 0 4 -10 9 -22 9 -18 2 -20 0 -8 -7z"/>
<path d="M1236 604 c-9 -23 -7 -34 4 -34 5 0 6 8 3 17 -5 12 -2 15 10 10 11
-4 14 -2 10 9 -7 19 -19 18 -27 -2z"/>
<path d="M1281 594 c0 -11 3 -14 6 -6 3 7 2 16 -1 19 -3 4 -6 -2 -5 -13z"/>
<path d="M646 567 c3 -10 9 -15 12 -12 3 3 0 11 -7 18 -10 9 -11 8 -5 -6z"/>
<path d="M1261 566 c-1 -12 -6 -16 -15 -13 -10 4 -13 1 -10 -7 4 -11 10 -11
30 -2 13 6 24 15 24 19 0 5 -4 6 -9 3 -5 -4 -12 0 -14 6 -3 8 -6 5 -6 -6z"/>
<path d="M1301 564 c0 -11 3 -14 6 -6 3 7 2 16 -1 19 -3 4 -6 -2 -5 -13z"/>
<path d="M345 561 c-3 -6 3 -9 14 -8 11 0 17 5 15 9 -7 11 -22 10 -29 -1z"/>
<path d="M420 552 c0 -6 -6 -9 -14 -6 -8 3 -17 -1 -22 -8 -4 -7 -4 -10 1 -6 4
4 14 3 21 -3 11 -9 15 -7 20 5 4 9 4 20 0 23 -3 4 -6 1 -6 -5z"/>
<path d="M859 548 c-9 -30 -6 -37 12 -28 23 13 25 22 2 13 -11 -4 -14 -3 -9 5
4 7 5 12 2 12 -3 0 -6 -1 -7 -2z"/>
<path d="M966 535 c-3 -9 -6 -26 -5 -38 1 -14 4 -9 9 13 9 37 7 52 -4 25z"/>
<path d="M679 529 c-12 -7 -11 -9 1 -9 13 0 13 -1 0 -10 -13 -8 -13 -10 2 -10
19 0 41 -33 30 -44 -3 -4 2 -4 12 0 13 5 14 9 6 14 -7 4 -10 13 -6 19 10 16
-29 50 -45 40z"/>
<path d="M896 525 c-9 -26 -7 -32 5 -12 6 10 9 21 6 23 -2 3 -7 -2 -11 -11z"/>
<path d="M871 499 c1 -8 -1 -22 -6 -32 -4 -10 -5 -21 -1 -24 3 -4 6 1 6 11 0
9 4 15 9 11 18 -10 22 15 6 32 -13 12 -16 13 -14 2z"/>
<path d="M686 477 c3 -10 9 -15 12 -12 3 3 0 11 -7 18 -10 9 -11 8 -5 -6z"/>
<path d="M765 470 c-17 -19 -17 -20 0 -20 10 0 15 3 12 7 -4 3 -2 12 4 20 18
21 4 15 -16 -7z"/>
<path d="M817 475 c-4 -8 -3 -16 1 -19 4 -3 9 4 9 15 2 23 -3 25 -10 4z"/>
<path d="M931 468 c-1 -23 15 -32 23 -12 3 8 2 13 -3 9 -5 -3 -12 1 -14 7 -4
8 -6 7 -6 -4z"/>
<path d="M900 450 c0 -5 5 -10 11 -10 5 0 7 5 4 10 -3 6 -8 10 -11 10 -2 0 -4
-4 -4 -10z"/>
<path d="M45 437 c-14 -11 -15 -16 -5 -22 9 -6 11 -4 5 5 -6 10 -4 12 9 7 9
-4 15 -3 11 2 -3 5 1 12 7 14 7 3 8 6 2 6 -5 1 -18 -5 -29 -12z"/>
<path d="M691 443 c-1 -17 16 -25 25 -12 4 7 3 9 -4 5 -5 -3 -13 0 -15 6 -4 9
-6 10 -6 1z"/>
<path d="M791 439 c-1 -18 22 -42 32 -33 3 3 18 -2 34 -11 l28 -17 -25 22
c-25 21 -25 22 -2 17 12 -3 20 -1 16 4 -3 5 -20 7 -39 5 -25 -3 -35 0 -38 12
-4 15 -5 15 -6 1z"/>
<path d="M754 429 c2 -9 0 -21 -6 -27 -6 -6 -6 -12 0 -16 13 -8 42 3 42 17 0
6 -3 7 -7 3 -4 -3 -13 4 -21 16 -7 13 -11 16 -8 7z"/>
<path d="M72 381 c-11 -7 -11 -9 0 -14 9 -3 15 1 15 9 0 8 -1 14 -1 14 -1 0
-7 -4 -14 -9z"/>
<path d="M826 381 c-3 -4 1 -17 9 -27 13 -17 14 -18 15 -1 0 9 -5 17 -11 17
-5 0 -7 5 -4 10 3 6 4 10 1 10 -3 0 -7 -4 -10 -9z"/>
<path d="M698 333 c-10 -2 -18 -11 -18 -19 0 -8 -4 -13 -9 -10 -9 6 -35 -44
-26 -52 3 -3 5 0 5 7 0 7 5 9 10 6 6 -4 7 -12 3 -18 -7 -11 -8 -15 -12 -34 -2
-12 -61 -14 -61 -2 0 6 4 8 9 5 5 -4 7 4 3 16 -3 12 -7 17 -10 10 -9 -27 -37
-11 -34 20 1 3 -5 9 -14 12 -11 4 -12 2 -5 -13 6 -10 8 -21 5 -24 -3 -3 4 -8
15 -12 23 -7 27 -20 11 -30 -6 -4 -8 -11 -4 -16 3 -5 10 -7 15 -4 5 4 9 1 9
-4 0 -6 -7 -11 -15 -11 -8 0 -15 -3 -16 -7 0 -5 -3 -21 -5 -38 -2 -16 -1 -25
3 -18 6 8 13 8 27 -3 11 -8 16 -14 10 -14 -5 0 -10 -11 -10 -25 -1 -14 2 -25
8 -25 5 0 6 -5 3 -10 -4 -6 -3 -10 2 -9 4 1 10 0 13 -1 19 -7 56 -5 62 3 8 13
40 19 32 6 -3 -5 -10 -7 -15 -4 -5 4 -9 1 -9 -4 0 -14 27 -14 36 0 3 6 2 15
-4 21 -6 6 -8 16 -5 23 3 10 -2 12 -17 8 -11 -3 -19 -8 -16 -11 11 -10 -14
-39 -33 -37 -21 1 -43 15 -24 15 6 0 10 16 9 36 -1 23 4 39 13 42 8 3 11 0 7
-7 -4 -6 0 -11 9 -11 9 0 14 4 10 9 -3 5 5 17 17 25 16 12 19 19 11 27 -8 8
-14 6 -22 -10 -7 -12 -19 -21 -28 -21 -9 0 -13 3 -10 7 4 3 1 13 -6 21 -9 13
-9 14 1 8 12 -7 32 30 35 66 1 10 8 20 17 23 13 6 12 9 -4 21 -11 7 -16 17
-12 21 4 5 16 -2 26 -15 11 -13 21 -18 25 -12 3 6 10 8 15 5 5 -3 11 -1 14 4
3 5 -3 11 -14 14 -11 3 -18 1 -14 -4 3 -5 0 -9 -6 -9 -17 0 -24 30 -10 43 10
9 11 9 5 -2 -6 -10 -4 -12 4 -7 6 4 18 2 26 -4 11 -10 15 -10 15 -1 0 7 4 10
9 7 10 -7 25 24 15 33 -3 3 -11 -2 -19 -12 -12 -17 -50 -14 -39 4 3 5 4 8 2 8
-2 -1 -11 -3 -20 -6z m-58 -145 c0 -5 -5 -6 -10 -3 -11 7 -14 -1 -25 -50 -6
-27 -5 -28 8 -11 11 15 14 16 14 3 0 -22 -19 -27 -42 -11 -18 13 -18 14 0 34
13 14 15 23 7 32 -8 10 -3 13 19 14 16 1 29 -3 29 -8z m-26 -150 c-9 -14 -23
2 -17 18 4 12 8 13 14 3 4 -7 5 -17 3 -21z"/>
<path d="M60 310 c6 -11 13 -20 16 -20 2 0 0 9 -6 20 -6 11 -13 20 -16 20 -2
0 0 -9 6 -20z"/>
<path d="M815 321 c3 -5 1 -12 -5 -16 -5 -3 -10 -14 -9 -23 0 -14 2 -14 6 -2
3 8 12 20 19 26 13 10 12 13 -1 18 -9 3 -13 2 -10 -3z"/>
<path d="M94 308 c-4 -7 -4 -10 1 -6 4 4 15 2 23 -5 12 -10 14 -9 11 2 -7 20
-26 25 -35 9z"/>
<path d="M45 291 c3 -6 1 -11 -4 -11 -6 0 -11 -8 -10 -17 0 -11 3 -13 6 -5 2
6 8 10 12 8 4 -3 12 -1 19 3 8 4 5 11 -9 20 -12 7 -18 8 -14 2z"/>
<path d="M780 291 c0 -7 -4 -9 -10 -6 -5 3 -10 2 -10 -4 0 -5 5 -13 10 -16 11
-7 26 22 16 32 -3 4 -6 1 -6 -6z"/>
<path d="M580 271 c-13 -25 -13 -41 1 -18 6 9 14 15 20 12 5 -3 6 1 3 9 -8 21
-11 20 -24 -3z"/>
<path d="M90 240 c6 -11 13 -20 16 -20 2 0 0 9 -6 20 -6 11 -13 20 -16 20 -2
0 0 -9 6 -20z"/>
<path d="M727 248 c-25 -9 -29 -28 -6 -28 6 0 7 6 3 13 -6 9 -4 9 8 -1 13 -10
16 -9 21 8 3 11 4 20 4 19 -1 0 -14 -5 -30 -11z"/>
<path d="M485 240 c-3 -6 1 -7 9 -4 18 7 21 14 7 14 -6 0 -13 -4 -16 -10z"/>
<path d="M49 221 c6 -10 7 -22 3 -26 -4 -5 -1 -5 6 -1 9 5 9 12 2 27 -6 10
-13 19 -16 19 -2 0 0 -8 5 -19z"/>
<path d="M217 221 c-3 -13 -1 -18 8 -15 7 3 16 1 19 -4 10 -17 -4 -38 -27 -39
-22 -2 -22 -2 3 18 22 18 23 19 3 9 -18 -8 -23 -8 -23 2 0 9 -3 9 -10 -2 -7
-10 -10 -11 -10 -2 0 10 -4 10 -20 0 -27 -17 -25 -24 5 -26 58 -5 65 -7 65
-17 0 -13 -28 -13 -49 -1 -7 5 -17 4 -23 -2 -7 -7 -4 -10 8 -9 12 1 19 -4 18
-15 -1 -10 4 -14 12 -11 8 3 11 9 8 14 -3 5 -1 9 3 9 5 0 14 -9 20 -20 11 -16
10 -21 -5 -30 -16 -11 -16 -11 1 -6 10 3 17 0 17 -7 0 -7 6 -3 12 7 9 15 7 22
-8 33 -10 7 -13 13 -6 13 6 0 9 6 6 14 -3 8 -1 23 6 33 9 16 10 15 4 -6 -4
-14 -2 -21 4 -17 5 3 12 17 14 31 3 13 1 22 -3 19 -5 -3 -9 0 -9 5 0 6 6 11
14 11 20 0 29 17 15 26 -8 5 -9 3 -4 -6 6 -10 4 -12 -8 -7 -10 4 -17 2 -17 -5
0 -6 -8 -4 -19 6 -17 16 -19 16 -24 -3z"/>
<path d="M460 219 c0 -16 17 -18 35 -5 17 13 17 14 -8 14 -15 0 -27 -4 -27 -9z"/>
<path d="M364 199 c-3 -6 -1 -22 7 -35 13 -24 29 -32 29 -14 0 5 5 9 12 7 15
-3 23 32 9 46 -7 7 -8 2 -4 -14 5 -24 5 -24 -11 -4 -13 16 -15 17 -10 3 4 -12
1 -18 -9 -18 -10 0 -15 7 -12 20 4 22 0 26 -11 9z"/>
<path d="M662 177 c-6 -17 -10 -32 -8 -35 2 -2 7 6 11 17 5 17 10 19 26 11 24
-13 24 -9 1 18 l-18 21 -12 -32z"/>
<path d="M703 195 c9 -9 14 -10 19 -1 7 10 12 2 9 -16 0 -4 6 -5 15 -1 24 9
10 28 -24 30 -25 1 -29 -1 -19 -12z"/>
<path d="M1446 191 c-16 -17 -16 -19 5 -24 11 -3 18 -3 15 0 -3 4 -1 12 5 19
17 20 -7 25 -25 5z"/>
<path d="M910 192 c0 -14 25 -62 32 -62 3 0 4 -9 1 -20 -7 -25 -39 -26 -52 -2
-9 16 -10 16 -16 0 -8 -19 1 -38 17 -38 6 0 5 7 -3 18 -11 14 -11 15 1 5 24
-22 20 -51 -7 -51 -16 1 -22 5 -19 14 3 8 1 14 -5 14 -6 0 -8 7 -5 16 3 8 -1
22 -10 31 -13 14 -14 13 -9 -11 3 -14 7 -38 10 -52 4 -17 11 -24 24 -22 10 2
19 -1 19 -7 1 -5 -4 -10 -10 -11 -20 0 -58 18 -58 28 0 5 4 7 9 4 5 -4 7 3 4
14 -3 11 -9 18 -13 15 -5 -3 -11 1 -13 7 -4 9 -6 10 -6 1 -1 -6 3 -14 9 -18 6
-4 6 -15 -1 -32 -5 -14 -7 -28 -4 -31 3 -3 5 0 5 5 0 12 25 12 36 0 15 -15 53
-7 59 13 3 11 11 20 16 20 6 0 7 5 4 10 -3 6 -1 10 4 10 6 0 11 -4 11 -10 0
-5 6 -7 14 -4 20 8 27 56 10 75 -8 9 -11 19 -7 24 5 4 1 4 -7 0 -11 -6 -10 -2
3 12 17 20 17 20 -8 17 -20 -2 -25 1 -21 12 3 8 1 14 -4 14 -6 0 -10 -4 -10
-8z m50 -122 c0 -5 -4 -10 -10 -10 -5 0 -10 5 -10 10 0 6 5 10 10 10 6 0 10
-4 10 -10z"/>
<path d="M1026 191 c-4 -5 -2 -12 3 -15 5 -4 12 -2 15 3 4 5 2 12 -3 15 -5 4
-12 2 -15 -3z"/>
<path d="M715 150 c-3 -5 -1 -10 4 -10 6 0 11 5 11 10 0 6 -2 10 -4 10 -3 0
-8 -4 -11 -10z"/>
<path d="M884 150 c-25 -10 -41 -30 -25 -30 6 0 11 4 11 8 0 4 9 8 20 9 13 1
18 -2 14 -9 -4 -7 -2 -8 4 -4 13 8 16 36 5 35 -5 0 -18 -4 -29 -9z"/>
<path d="M522 131 c4 -13 18 -16 19 -4 0 4 -5 9 -11 12 -7 2 -11 -2 -8 -8z"/>
<path d="M810 140 c-8 -26 -7 -41 2 -32 6 6 8 16 5 24 -3 7 -6 11 -7 8z"/>
<path d="M257 123 c-4 -6 0 -16 8 -23 10 -8 12 -17 6 -24 -4 -6 -7 -19 -6 -29
4 -21 -9 -22 -30 -1 -13 13 -19 14 -28 5 -7 -7 -7 -12 -2 -11 21 4 30 -1 17
-9 -11 -7 -10 -9 3 -14 9 -4 13 -3 10 3 -3 6 -1 10 4 10 6 0 11 -7 11 -15 0
-12 3 -12 18 2 12 12 15 21 8 26 -7 5 -2 7 12 4 12 -3 22 0 22 6 0 6 3 7 8 3
4 -4 -5 -18 -20 -30 l-27 -21 44 -2 c25 -1 45 -1 45 2 0 15 -14 34 -22 29 -6
-4 -5 -10 3 -15 11 -7 10 -9 -5 -9 -12 0 -16 5 -12 16 3 9 6 20 6 25 0 5 6 9
13 9 8 0 14 6 14 14 0 8 -3 15 -6 14 -21 -2 -31 4 -25 15 4 6 4 9 -1 5 -4 -4
-14 0 -21 10 -7 9 -16 14 -20 9 -4 -4 1 -13 11 -20 21 -16 16 -39 -8 -43 -9
-1 -15 2 -11 7 3 5 10 7 15 4 5 -4 9 -2 9 4 0 5 -6 14 -14 18 -7 4 -15 15 -18
23 -3 9 -7 10 -11 3z"/>
<path d="M1175 91 c-3 -5 -2 -12 3 -15 5 -3 9 1 9 9 0 17 -3 19 -12 6z"/>
<path d="M980 72 c0 -19 -27 -51 -45 -51 -5 0 -11 -5 -13 -11 -2 -6 4 -10 14
-8 32 5 74 71 54 83 -6 4 -10 -2 -10 -13z"/>
<path d="M1220 60 c0 -6 5 -10 10 -10 6 0 10 -4 10 -10 0 -5 -6 -7 -13 -4 -7
2 -13 -3 -14 -14 -1 -11 5 -18 18 -18 24 0 27 51 4 60 -8 3 -15 1 -15 -4z"/>
<path d="M1173 48 c-12 -21 -14 -48 -2 -48 5 0 8 4 4 9 -3 6 5 19 17 30 18 17
19 21 5 21 -8 0 -19 -6 -24 -12z"/>
<path d="M1520 53 c8 -3 19 -11 23 -17 6 -7 7 -6 4 4 -2 8 -12 16 -23 17 -13
2 -15 1 -4 -4z"/>
<path d="M1470 38 c0 -10 17 -10 24 0 3 5 -1 9 -9 9 -8 0 -15 -4 -15 -9z"/>
<path d="M3497 23 c-15 -15 -5 -23 28 -23 36 0 47 13 19 24 -23 9 -26 8 -18
-6 6 -10 5 -10 -8 -1 -8 7 -18 10 -21 6z"/>
<path d="M148 8 c5 -5 16 -8 23 -6 8 3 3 7 -10 11 -17 4 -21 3 -13 -5z"/>
<path d="M1355 10 c-3 -5 -1 -10 4 -10 6 0 11 5 11 10 0 6 -2 10 -4 10 -3 0
-8 -4 -11 -10z"/>
<path d="M1505 10 c3 -5 8 -10 11 -10 2 0 4 5 4 10 0 6 -5 10 -11 10 -5 0 -7
-4 -4 -10z"/>
<path d="M1530 9 c0 -5 5 -7 10 -4 6 3 10 8 10 11 0 2 -4 4 -10 4 -5 0 -10 -5
-10 -11z"/>
</g>
</svg>
